<svg id="Capa_1" data-name="Capa 1" xmlns="http://www.w3.org/2000/svg" viewBox="0 0 612.47 707.22"><defs><style>.cls-1{fill:#00ffe7;}</style></defs><g id="b75708d097f2188dff6617b0f00f7c43"><path class="cls-1" d="M210.83,286.2H589.17V591.6A33,33,0,0,1,556,624.45h-37.9v93a42.51,42.51,0,1,1-85,0v-93H366.92v93a42.53,42.53,0,1,1-85.05,0v-93H244a33,33,0,0,1-33.17-32.85V286.2Zm-74.14-2.49a43,43,0,0,0-42.93,43.18V495.65a42.93,42.93,0,1,0,85.86,0V326.89A43,43,0,0,0,136.69,283.71Zm452.48-28.28H210.83c4.67-53.39,39.64-99.34,90-125.94l-36-52.32a15.38,15.38,0,0,1,4.11-21.49,15.74,15.74,0,0,1,21.71,4.07l39.2,57.07a215.8,215.8,0,0,1,140.33,0l39.21-57a15.67,15.67,0,0,1,21.67-4.1,15.36,15.36,0,0,1,4.11,21.49l-35.94,52.32C549.56,156.08,584.5,202,589.17,255.43Zm-248-72.55a20.93,20.93,0,1,0-20.91,20.73A20.83,20.83,0,0,0,341.13,182.88Zm162.25,0a20.93,20.93,0,1,0-20.94,20.73A20.85,20.85,0,0,0,503.38,182.88Zm160,100.77a43.1,43.1,0,0,0-43,43.21V495.68a42.93,42.93,0,1,0,85.85,0V326.86A43,43,0,0,0,663.34,283.65Z" transform="translate(-93.76 -53)"/></g></svg>