<svg id="Capa_1" data-name="Capa 1" xmlns="http://www.w3.org/2000/svg" viewBox="0 0 800 619.65"><defs><style>.cls-1{fill:#00ffe7;}</style></defs><path class="cls-1" d="M370.1,675.62c102.78-18.16,187.67-33.18,188.65-33.39l1.77-.37-97-115.43c-53.36-63.48-97-115.66-97-116,0-.57,100.2-276.5,100.76-277.48.19-.33,68.38,117.4,165.29,285.37L798.74,706.5l1.26,2.21-308.39,0-308.39,0,186.88-33ZM0,640.42c0-.16,45.72-79.53,101.61-176.38L203.21,288l118.41-99.37c65.13-54.66,118.59-99.44,118.8-99.53s-.64,2.08-1.9,4.8S379.4,220.68,309.94,369.64L183.66,640.49l-91.83.11c-50.51.06-91.83,0-91.83-.18Z" transform="translate(0 -89.06)"/></svg>