<svg id="Capa_1" data-name="Capa 1" xmlns="http://www.w3.org/2000/svg" viewBox="0 0 749.78 395.27"><defs><style>.cls-1{fill:#00ffe7;}</style></defs><path class="cls-1" d="M25.1,360.25a16.27,16.27,0,0,0,32.45.05V324.18a16.24,16.24,0,0,0-32.45,0v36.1Zm89.85,0a16.32,16.32,0,0,0,32.5.05V279.35a16.24,16.24,0,0,0-32.45,0v80.9Zm89.4,32.6a16.24,16.24,0,0,0,32.45,0v-175a16.24,16.24,0,0,0-32.45,0v175Zm90.18-32.6a16.24,16.24,0,0,0,32.45,0v-80.9a16.24,16.24,0,0,0-32.45,0v80.9Zm89.67,0a16.31,16.31,0,0,0,32.45.05V324.15a16.24,16.24,0,0,0-32.45,0v36.13Zm90.55,0a16.28,16.28,0,0,0,32.5.05V279.38a16.24,16.24,0,0,0-32.45,0v80.9Zm88.68,32.6a16.27,16.27,0,0,0,32.45,0v-175a16.24,16.24,0,0,0-32.45,0v175Zm90.14-32.6a16.3,16.3,0,0,0,32.5.05V279.38a16.28,16.28,0,0,0-32.5-.05v80.92Zm88.86,0a16.24,16.24,0,0,0,32.45,0v-36.1a16.24,16.24,0,0,0-32.45,0v36.1ZM569.4,530a68.54,68.54,0,0,0,83.75,65.74l-.45.08A66.84,66.84,0,0,0,674.9,473l-.3-.17a68.07,68.07,0,0,0-36.25-10.3A68.93,68.93,0,0,0,569.43,530V530ZM617,503.35a34.23,34.23,0,0,1,43.3,53l-.05,0-.52.43A34.25,34.25,0,0,1,617,503.37l0-.05ZM237.07,595.07h32.81V464.9H237.07ZM314.4,564l-.12,29.89,2.17.38a170.3,170.3,0,0,0,20.13,2.62l.6,0c3.5.35,7.57.55,11.7.55,2.32,0,4.65-.08,7-.2l-.32,0a78.59,78.59,0,0,0,17.77-3.4l-.55.15a47.6,47.6,0,0,0,17.9-9.57l-.07,0a36.41,36.41,0,0,0,10.32-14.68l.08-.25a41,41,0,0,0-.3-30.27l.1.27a33.52,33.52,0,0,0-9.28-12.9l-.05,0a39.4,39.4,0,0,0-13.4-7.87l-.27-.08-22.55-8.37a12.33,12.33,0,0,1-6.13-5.8l0-.08a7.56,7.56,0,0,1-.68-3.17,7.68,7.68,0,0,1,1-3.7l0,.05a12,12,0,0,1,4.75-4.4l.07,0a24.36,24.36,0,0,1,7.9-2.3h.13a47.66,47.66,0,0,1,14.64.2l-.27-.05A121.46,121.46,0,0,1,394,494.2l-.83-.18,1.18.25v-27.6l-2.15-.47A130.84,130.84,0,0,0,376,463.25l-.73-.08a87.24,87.24,0,0,0-11.53-.75,92.22,92.22,0,0,0-11.22.7l.45-.05a48.45,48.45,0,0,0-25.75,10.38l.1-.08a34.54,34.54,0,0,0-10.9,14.88l-.08.22a40.72,40.72,0,0,0-2.45,14,41.14,41.14,0,0,0,2.55,14.33l-.1-.3a32.16,32.16,0,0,0,7.86,11.9h0a44.72,44.72,0,0,0,10,7.25l.25.12a70.37,70.37,0,0,0,15,6l.5.12c1.78.53,3.55,1.1,5.3,1.68l2.65,1,.75.3a20,20,0,0,1,7.08,4.38h0a12.21,12.21,0,0,1,3.12,4.62l0,.08a10.33,10.33,0,0,1,.32,2.57,9.54,9.54,0,0,1-.32,2.53l0-.08a10.6,10.6,0,0,1-5.12,6.15l0,0a26.23,26.23,0,0,1-8.45,2.67l-.15,0a63.09,63.09,0,0,1-9.78.75c-1.25,0-2.5,0-3.75-.1h.18A165,165,0,0,1,323.35,566l1,.18c-3-.65-6-1.35-9-2.1ZM191.8,592.8V558.1l-.68.3a62.8,62.8,0,0,1-24.87,6.32h-.15c-.85.08-1.85.1-2.85.1a36.83,36.83,0,0,1-22.42-7.57l.1.07A32.27,32.27,0,0,1,130,542l-.08-.23a36.45,36.45,0,0,1-1.87-11.72,37.61,37.61,0,0,1,1.17-9.38l-.05.25a31.83,31.83,0,0,1,11.1-17.72l0-.05a33.2,33.2,0,0,1,17.4-7.55l.15,0a58.28,58.28,0,0,1,6.43-.35,57.51,57.51,0,0,1,27,6.7l-.32-.15.75.4v-34.9l-1.6-.42A87.74,87.74,0,0,0,163,462.62c-1.55,0-3.1.05-4.62.13h.22a73,73,0,0,0-28.67,6.62l.45-.2a65.34,65.34,0,0,0-23,17.73l-.1.1a69.53,69.53,0,0,0-1.15,84.7l-.12-.18a65.9,65.9,0,0,0,36.3,23.53l.45.1a83.88,83.88,0,0,0,20.35,2.45,85.92,85.92,0,0,0,26.72-4.25l-.6.17,2.6-.72Zm343.5,0V558.1l-.67.3a62.93,62.93,0,0,1-24.88,6.32h-.15c-.85.08-1.83.1-2.83.1a36.88,36.88,0,0,1-22.45-7.57l.1.07A32.51,32.51,0,0,1,473.5,542l-.08-.23a37,37,0,0,1-1.85-11.67,37.54,37.54,0,0,1,1.18-9.43l-.05.25a32,32,0,0,1,11.1-17.72l.05-.05a33.17,33.17,0,0,1,17.4-7.55l.15,0a58.09,58.09,0,0,1,33.45,6.35l-.33-.15.75.4v-34.9l-1.6-.42a87.63,87.63,0,0,0-27.17-4.23c-1.55,0-3.1.05-4.63.13h.23a72.91,72.91,0,0,0-28.67,6.62l.44-.2a64.88,64.88,0,0,0-23,17.73l-.09.12a69.41,69.41,0,0,0-1.11,84.7l-.12-.17a66.13,66.13,0,0,0,36.25,23.52l.45.1a83.94,83.94,0,0,0,20.35,2.45,86,86,0,0,0,26.73-4.25l-.6.18,2.54-.73Z" transform="translate(-25.1 -202.35)"/></svg>