<svg id="Capa_1" data-name="Capa 1" xmlns="http://www.w3.org/2000/svg" viewBox="0 0 747 400"><defs><style>.cls-1,.cls-2,.cls-5{fill:#00ffe7;}.cls-1,.cls-5{stroke:#00ffe7;}.cls-1{opacity:0.94;}.cls-1,.cls-4{isolation:isolate;}.cls-2,.cls-3{fill-opacity:0;}.cls-4{fill:#719e2d;stroke:#719e2d;opacity:0.49;}</style></defs><path class="cls-1" d="M127.5,217H140v4.5l-8,41v9l7,3-1,8-2.5,3.5q-12.6,1.61-16.5-5.5-3.6-5.4-2-16l5-23,3-22Z"/><path class="cls-1" d="M217.5,223h10l1.5,1.5L228,236h7.5l1.5,1.5-1,10-1.5,1.5h-8l-.5,2.5-3,13V272q2.1,1.61,7.5,1l1.5,1.5-1,7-3.5,4.5q-11.9,1.39-16.5-4.5-4.2-4.8-3-15l4-18,3-22Z"/><path class="cls-1" d="M168.5,234q17.81-2.81,23.5,6.5l2,4,1,7-5,29-2.5,2.5-11,3h-13q-7.8-1.2-11.5-6.5-3.5-4-2-13,1.6-6.9,7.5-9.5,6.5-3,16-3l6.5,1q1.5-5.4-1.5-7-3.5-2.5-11-1l-7.5,2-3-11Zm-.5,31-3,3q-1,5,3,6l9-1,1-6v-2Z"/><path class="cls-1" d="M263.5,234q17.1-2.59,22.5,6.5l3,8v5l-5,27-2.5,2.5-11,3h-13q-7.8-1.2-11.5-6.5-3.3-3.71-2-12a16,16,0,0,1,7.5-10.5q6.5-3,16-3l6.5,1q1.5-6.3-2.5-8h-9l-8.5,2-3-11ZM262,265l-3,3q-1,5,3,6l9-1,1-5v-3Z"/><path class="cls-1" d="M320.5,234h12l6,3h3q5.5-4.5,17-3,7.9,2.1,11.5,8.5l2,7v5l-5,23v5l-2.5,2.5h-11l-1.5-1.5,3-20,2-6v-8q-1.69-4.2-9.5-2.5l-2.5,1.5c1.53.8,1.87,2.8,1,6l-5,28-2.5,2.5h-11l-1.5-1.5,5-26v-8l-2.5-2.5H321l-7,38H300v-5.5l2-6,5-32,3.5-4.5Z"/><path class="cls-1" d="M381,286h45.5c.67,0,.83,1.5.5,4.5l-1,5-2.5,2.5h-43q-1.1-.11-.5-5.5Z"/><path class="cls-2" d="M0,0H747V400H0ZM529,102l-16,20,1,2h15l19-20v-2Zm-44,1-9,2-6,3a30.32,30.32,0,0,0-11,16l-13,76,2,1h18l2-5,1-11,6-28v-6h14l3-9v-9H479l2-7q3-6,15-4l1-1,2-15Q494,102,485,103Zm-297,2-3,6-3,20-7-2q-18-1-26,7l-9,12-5,23q-2,15,4,22l9,7,11,3,17-1,14-4,2-2v-5l2-6,2-17,2-6,9-55-1-2Zm-70,16-8,2a21,21,0,0,0-7,11l-2,16-3,8-6,3-2,11,5,3v9l-3,12q-1,9,2,13,4,5,15,3l2-2,1-5v-6h-6l3-18q1-10-4-13l7-8,5-23q1-3,6-2l2-4,1-9C124.67,120.67,122,120.33,118,121Zm521,0-3,3-1,10q5-1,6,2v5l-3,12,1,10,3,3c.67,1.33.33,1.67-1,1l-7,10-3,19q-2,4-8,3l-2,10,2,3q9,1,15-2,5-3,6-10l2-16,3-8,5-3,2-2,1-10c-2.67.67-4.33,0-5-2v-8l3-13-1-11Q650,120,639,121Zm-390,8-15,5q-8,5-12,15l-5,24q-2,13,3,20l6,5,9,4c2.67-.67,4.67-.33,6,1h8l11-2,11-5,2-2v-4l-6-11-17,6-8-1q-5-1-4-9l2-2h37l1-1,3-16-1-12-4-8-11-6Zm76,0-9,2-7,4-7,9-2,9,1,7,2,4,9,7,15,4,3,3q1,5-3,6H315l-13-6-10,12v4l11,6,13,3,16-1,10-4q7-5,10-15,1-11-3-16a24,24,0,0,0-12-9q-9,0-13-4-4,1-2-4l4-3h9l12,4,9-11v-5l-17-6Zm74,0-14,3-8,5,5,14h5l8-3h11l2,1,2,4c.67,3.33.33,5.33-1,6l-2-1H391l-14,5a18.37,18.37,0,0,0-9,12v14l2,4,7,6,13,4,18-1,15-4,1-1,7-39-1-13-3-6Q420,127,399,129Zm180,0-11,3-10,6-7,12-4,20v15l6,11,9,5,8,2,15-1,13-6a30.45,30.45,0,0,0,9-13l5-25q1-13-5-19Q599,127,579,129Zm-67,2-2,8-10,61,2,1h18l2-5,10-61v-4ZM128,217l-3,3-3,22-5,23q-2,10,2,16,4,7,17,5l2-3,1-8-7-3v-9l8-41v-5Zm90,6-3,4-3,22-4,18q-1,10,3,15,5,5,17,4l3-4,1-7-1-2c-4,.67-6.67.33-8-1v-7l3-13,1-3h8l1-1,1-10-1-2h-8l1-11-1-2Zm-49,11-12,4,3,11,8-2q7-1,11,1c2,1.33,2.33,3.67,1,7l-6-1q-10,0-16,3a15.26,15.26,0,0,0-8,10q-1,9,2,13,4,5,12,6h13l11-3,2-2,5-29-1-7-2-4Q186,231,169,234Zm95,0-13,4,3,11,9-2h9q4,2,2,8l-6-1q-10,0-16,3t-8,11q-1,8,2,12,4,5,12,6h13l11-3,2-2,5-27v-5l-3-8Q281,231,264,234Zm57,0-10,3-4,5-5,32-2,6v5h14l7-38h8l2,3v8l-5,26,2,1h11l2-2,5-28c.67-3.33.33-5.33-1-6l3-2q7-2,9,3v8l-2,6-3,20,2,1h11l2-2v-5l5-23v-5l-2-7a18.19,18.19,0,0,0-11-9q-12-1-17,3h-3l-6-3Zm60,52-1,7c-.67,3.33-.33,5,1,5h43l2-2,1-5v-5Z"/><path class="cls-3" d="M168.5,147q6.9-.9,9.5,2.5L173,183q-3.8,1.8-11.5,1l-5.5-4.5v-6l3-16a14.22,14.22,0,0,1,6.5-9.5Z"/><path class="cls-3" d="M249.5,147q8.59-1.09,10.5,4.5,1.5,6-1.5,7.5h-17l-.5-1.5,3-7.5Z"/><path class="cls-3" d="M582.5,147l6.5,3.5q2.29,3.19,1,10-3,6.5-3,16l-5.5,6.5-9,1-3.5-2.5-1-9,4-19,4.5-4.5Z"/><path class="cls-3" d="M393.5,173h13l.5,1.5-2,9.5q-3.3,2.1-11.5,1l-4.5-3.5q-.79-5.81,2.5-7.5Z"/><path class="cls-3" d="M167.5,265h10l.5,1.5-1,6.5-9.5,1c-2.33-.67-3.17-2.83-2.5-6.5Z"/><path class="cls-3" d="M261.5,265h10l.5,2.5-1,5.5-9.5,1c-2.33-.67-3.17-2.83-2.5-6.5Z"/><path class="cls-4" d="M528.5,102l-1,2Z"/><path class="cls-4" d="M484.5,103l9.5.5-9.5.5Z"/><path class="cls-4" d="M478.5,104l2.5.5-2.5.5Z"/><path class="cls-4" d="M497.5,104q2.5,1,1.5,5.5h-1Z"/><path class="cls-4" d="M187.5,105h18l1.5,1.5-.5,4.5-.5-5H187.5l-.5,1.5h-1Z"/><path class="cls-4" d="M526.5,105l-3.5,4.5L514.5,120l3.5-4.5Z"/><path class="cls-4" d="M546.5,105l-18,19-1.5-.5Z"/><path class="cls-4" d="M471.5,107l-1,2-6,5,5-6Z"/><path class="cls-4" d="M185.5,110l.5,2.5h-1Z"/><path class="cls-4" d="M497.5,112l.5,3.5h-1Z"/><path class="cls-4" d="M205.5,113l.5,2.5h-1Z"/><path class="cls-4" d="M184.5,115l.5,3.5h-1Z"/><path class="cls-4" d="M463.5,115l-.5,1.5-3.5,9.5-.5-2.5Z"/><path class="cls-4" d="M204.5,118l.5,3.5h-1Z"/><path class="cls-4" d="M496.5,118l.5,2.5-2,1Z"/><path class="cls-4" d="M117.5,121l6.5.5-6.5.5Z"/><path class="cls-4" d="M183.5,121l.5,3.5h-1Z"/><path class="cls-4" d="M486.5,121l5.5.5-5.5.5Z"/><path class="cls-4" d="M513.5,121l1.5,2.5-2,.5Z"/><path class="cls-4" d="M638.5,121l7.5.5-7.5.5-1.5,1.5-.5,3.5-.5-3.5Z"/><path class="cls-4" d="M125.5,122l.5,3.5h-1Z"/><path class="cls-4" d="M483.5,122l1.5.5-4,3-1.5,3.5-.5-1.5Z"/><path class="cls-4" d="M109.5,123l1.5.5-4.5,3.5Z"/><path class="cls-4" d="M650.5,123l3.5,4.5h-1Z"/><path class="cls-4" d="M203.5,124l.5,3.5h-1Z"/><path class="cls-4" d="M182.5,127l.5,2.5h-1Z"/><path class="cls-4" d="M124.5,128l.5,2.5h-1Z"/><path class="cls-4" d="M458.5,128l.5,2.5h-1Z"/><path class="cls-4" d="M164.5,129l10.5.5-10.5.5Z"/><path class="cls-4" d="M248.5,129l12.5.5-12.5.5Z"/><path class="cls-4" d="M324.5,129l14.5.5-14.5.5Z"/><path class="cls-4" d="M398.5,129l13.5.5-13.5.5Z"/><path class="cls-4" d="M578.5,129l12.5.5-12.5.5Z"/><path class="cls-4" d="M635.5,129l.5,2.5h-1Z"/><path class="cls-4" d="M654.5,129l.5,8.5h-1Z"/><path class="cls-4" d="M159.5,130l2.5.5-2.5.5Z"/><path class="cls-4" d="M202.5,130l.5,2.5h-1Z"/><path class="cls-4" d="M319.5,130l2.5.5-2.5.5Z"/><path class="cls-4" d="M341.5,130l2.5.5-2.5.5Z"/><path class="cls-4" d="M391.5,130l3.5.5-3.5.5Z"/><path class="cls-4" d="M413.5,130l2.5.5-2.5.5Z"/><path class="cls-4" d="M478.5,130l.5,2.5h-1Z"/><path class="cls-4" d="M573.5,130l2.5.5-2.5.5Z"/><path class="cls-4" d="M592.5,130l2.5.5-2.5.5Z"/><path class="cls-4" d="M156.5,131l1.5.5-4.5,2.5,1-2Z"/><path class="cls-4" d="M315.5,131l2.5.5-7.5,3.5,1-2Z"/><path class="cls-4" d="M387.5,131l2.5.5-2.5.5Z"/><path class="cls-4" d="M596.5,131a20.49,20.49,0,0,1,10.5,7.5l-4.5-3.5-6-3Z"/><path class="cls-4" d="M237.5,132l1.5.5A23.94,23.94,0,0,0,225.5,143l8-9Z"/><path class="cls-4" d="M348.5,132l3.5,1.5-1.5.5Z"/><path class="cls-4" d="M567.5,132l1.5.5-4.5,2.5,1-2Z"/><path class="cls-4" d="M103.5,133l.5,2.5h-1Z"/><path class="cls-4" d="M123.5,133l-1,2q-4.5-1-5.5,1.5l-1.5,5.5-.5-3.5,3.5-4.5Z"/><path class="cls-4" d="M271.5,133l2,3Z"/><path class="cls-4" d="M421.5,133l5,6Z"/><path class="cls-4" d="M457.5,133l.5,3.5h-1Z"/><path class="cls-4" d="M511.5,133l.5,2.5h-1Z"/><path class="cls-4" d="M151.5,134l-2,3-3.5,2.5-2.5,3.5,1.5-2.5,3.5-4.5Z"/><path class="cls-4" d="M353.5,134l2.5,1.5-1.5.5Z"/><path class="cls-4" d="M640.5,134q2.29.8,1.5,4.5h-1Z"/><path class="cls-4" d="M201.5,135l.5,3.5h-1Z"/><path class="cls-4" d="M308.5,135l-2.5,3.5-3.5,6.5-.5-1.5Z"/><path class="cls-4" d="M378.5,135l-.5,1.5-.5,1.5-.5-1.5Z"/><path class="cls-4" d="M562.5,135l-3,4-1.5-.5Z"/><path class="cls-4" d="M275.5,136l2.5,3.5-3-2Z"/><path class="cls-4" d="M531.5,136l.5,3.5h-1Z"/><path class="cls-4" d="M102.5,138l.5,3.5h-1Z"/><path class="cls-4" d="M491.5,138l.5,3.5h-1Z"/><path class="cls-4" d="M510.5,138l.5,3.5h-1Z"/><path class="cls-4" d="M355.5,139l-1.5,2.5-7.5,9.5-2.5-.5,6-4Z"/><path class="cls-4" d="M456.5,139l.5,2.5h-1Z"/><path class="cls-4" d="M557.5,140l-2.5,3.5-1.5,2.5.5-1.5Z"/><path class="cls-4" d="M607.5,140l2.5,4.5h-1Z"/><path class="cls-4" d="M653.5,140l.5,3.5h-1Z"/><path class="cls-4" d="M200.5,141l.5,3.5h-1Z"/><path class="cls-4" d="M278.5,141l1.5,4.5h-1Z"/><path class="cls-4" d="M640.5,141l.5,2.5h-1Z"/><path class="cls-4" d="M379.5,142l1.5,3.5h-1Z"/><path class="cls-4" d="M428.5,142l1.5,4.5h-1Z"/><path class="cls-4" d="M530.5,142l.5,2.5h-1Z"/><path class="cls-4" d="M101.5,144l.5,3.5h-1Z"/><path class="cls-4" d="M114.5,144l.5,2.5h-1Z"/><path class="cls-4" d="M142.5,144l-.5,1.5-1.5,3.5-.5-1.5Z"/><path class="cls-4" d="M455.5,144l.5,3.5h-1Z"/><path class="cls-4" d="M490.5,144l.5,2.5h-1Z"/><path class="cls-4" d="M509.5,144l.5,2.5h-1Z"/><path class="cls-4" d="M251.5,146l2.5.5-2.5.5Z"/><path class="cls-4" d="M301.5,146l.5,2.5h-1Z"/><path class="cls-4" d="M328.5,146l3.5.5-3.5.5Z"/><path class="cls-4" d="M639.5,146l.5,3.5h-1Z"/><path class="cls-4" d="M652.5,146l.5,3.5h-1Z"/><path class="cls-4" d="M174.5,147l4.5,1-.5,5-2-5Q173.5,148.5,174.5,147Z"/><path class="cls-4" d="M199.5,147l.5,2.5h-1Z"/><path class="cls-4" d="M247.5,147l1.5.5-4.5,2.5v-1Z"/><path class="cls-4" d="M255.5,147l3.5,1,1,2.5-3.5-2.5Z"/><path class="cls-4" d="M335.5,147l2.5.5-2.5.5Z"/><path class="cls-4" d="M398.5,147l5.5.5-5.5.5Z"/><path class="cls-4" d="M529.5,147l.5,3.5h-1Z"/><path class="cls-4" d="M552.5,147l.5,1.5-2.5,6.5-.5-2.5Z"/><path class="cls-4" d="M579.5,147l2.5.5-2.5.5Z"/><path class="cls-4" d="M583.5,147q4.8.3,6.5,3.5l1,8h-1q1.31-7.2-2.5-9.5l-4-1Z"/><path class="cls-4" d="M164.5,148l-3.5,4.5-.5,1.5-.5-1.5Z"/><path class="cls-4" d="M280.5,148l.5,7.5h-1Z"/><path class="cls-4" d="M391.5,148l2.5.5-2.5.5Z"/><path class="cls-4" d="M576.5,148l1.5.5-5.5,4.5Z"/><path class="cls-4" d="M113.5,149l.5,3.5h-1Z"/><path class="cls-4" d="M387.5,149l2.5.5-4.5,1.5v-1Z"/><path class="cls-4" d="M408.5,149l1.5,2.5h-1Z"/><path class="cls-4" d="M489.5,149l-1,2-13.5-.5,13.5-.5Z"/><path class="cls-4" d="M100.5,150l.5,2.5h-1Z"/><path class="cls-4" d="M321.5,150l.5,2.5h-1Z"/><path class="cls-4" d="M430.5,150l.5,7.5h-1Z"/><path class="cls-4" d="M454.5,150l.5,2.5h-1Z"/><path class="cls-4" d="M508.5,150l.5,2.5h-1Z"/><path class="cls-4" d="M611.5,150l.5,7.5h-1Z"/><path class="cls-4" d="M243.5,151l-.5,1.5-1.5,4.5-.5-2.5Z"/><path class="cls-4" d="M260.5,152l.5,4.5h-1Z"/><path class="cls-4" d="M300.5,152l.5,2.5h-1Z"/><path class="cls-4" d="M638.5,152l.5,6.5h-1Z"/><path class="cls-4" d="M651.5,152l.5,6.5,2,2-3-2Z"/><path class="cls-4" d="M138.5,153l.5,3.5h-1Z"/><path class="cls-4" d="M198.5,153l.5,2.5h-1Z"/><path class="cls-4" d="M474.5,153l.5,3.5h-1Z"/><path class="cls-4" d="M528.5,153l.5,3.5h-1Z"/><path class="cls-4" d="M99.5,154l.5,1.5L95.5,161l-3,1v-1l5.5-3.5Z"/><path class="cls-4" d="M322.5,154l3.5,1.5-1.5.5Z"/><path class="cls-4" d="M177.5,155l.5,3.5h-1Z"/><path class="cls-4" d="M220.5,155l.5,3.5h-1Z"/><path class="cls-4" d="M507.5,155l.5,3.5h-1Z"/><path class="cls-4" d="M453.5,156l.5,2.5h-1Z"/><path class="cls-4" d="M331.5,157l2.5.5-2.5.5Z"/><path class="cls-4" d="M570.5,157l.5,3.5h-1Z"/><path class="cls-4" d="M111.5,158l.5,1.5-7,8,1.5,2.5-2.5-4,6-4.5Z"/><path class="cls-4" d="M158.5,158l.5,3.5h-1Z"/><path class="cls-4" d="M197.5,158l.5,3.5h-1Z"/><path class="cls-4" d="M259.5,158l.5,2-19-.5,17.5-.5Z"/><path class="cls-4" d="M279.5,158l.5,3.5h-1Z"/><path class="cls-4" d="M335.5,158l3.5,1.5-1.5.5Z"/><path class="cls-4" d="M390.5,158l16.5.5-16.5.5Z"/><path class="cls-4" d="M549.5,158l.5,2.5h-1Z"/><path class="cls-4" d="M137.5,159l.5,2.5h-1Z"/><path class="cls-4" d="M385.5,159l2.5.5-2.5.5Z"/><path class="cls-4" d="M473.5,159l.5,2.5h-1Z"/><path class="cls-4" d="M527.5,159l.5,2.5h-1Z"/><path class="cls-4" d="M176.5,161l.5,2.5h-1Z"/><path class="cls-4" d="M219.5,161l.5,2.5h-1Z"/><path class="cls-4" d="M342.5,161l6.5,5.5,1,2-2-1-3.5-4.5Z"/><path class="cls-4" d="M379.5,161l1.5.5-2.5,1.5Z"/><path class="cls-4" d="M429.5,161l.5,2.5h-1Z"/><path class="cls-4" d="M452.5,161l.5,3.5h-1Z"/><path class="cls-4" d="M506.5,161l.5,2.5h-1Z"/><path class="cls-4" d="M589.5,161l.5,2.5h-1Z"/><path class="cls-4" d="M610.5,161l.5,2.5h-1Z"/><path class="cls-4" d="M639.5,161l3.5,5.5-5.5,4.5,3-4q2.29.8,1.5-1.5Q637.8,164.3,639.5,161Z"/><path class="cls-4" d="M655.5,161q2.6-.8,1.5,2.5h-1Z"/><path class="cls-4" d="M91.5,163l.5,3.5H91Z"/><path class="cls-4" d="M303.5,163l5,6Z"/><path class="cls-4" d="M376.5,163l-5.5,6.5-2.5,7.5-.5-2.5Q370.1,166.59,376.5,163Z"/><path class="cls-4" d="M548.5,163l.5,3.5h-1Z"/><path class="cls-4" d="M569.5,163l.5,2.5h-1Z"/><path class="cls-4" d="M136.5,164l.5,3.5h-1Z"/><path class="cls-4" d="M157.5,164l.5,2.5h-1Z"/><path class="cls-4" d="M196.5,164l.5,2.5h-1Z"/><path class="cls-4" d="M278.5,164l.5,3.5h-1Z"/><path class="cls-4" d="M472.5,164l.5,3.5h-1Z"/><path class="cls-4" d="M526.5,164l.5,3.5h-1Z"/><path class="cls-4" d="M175.5,166l.5,3.5h-1Z"/><path class="cls-4" d="M218.5,166l.5,3.5h-1Z"/><path class="cls-4" d="M428.5,166l.5,3.5h-1Z"/><path class="cls-4" d="M505.5,166l.5,3.5h-1Z"/><path class="cls-4" d="M588.5,166l.5,3.5h-1Z"/><path class="cls-4" d="M609.5,166l.5,3.5h-1Z"/><path class="cls-4" d="M451.5,167l.5,2.5h-1Z"/><path class="cls-4" d="M655.5,167l.5,3.5-6.5,4.5,1-2,4.5-2.5Z"/><path class="cls-4" d="M568.5,168l.5,3.5h-1Z"/><path class="cls-4" d="M90.5,169l.5,3,2,.5-1.5.5Q89,172,90.5,169Z"/><path class="cls-4" d="M156.5,169l.5,3.5h-1Z"/><path class="cls-4" d="M310.5,169l4.5,2.5-1.5.5Z"/><path class="cls-4" d="M547.5,169l.5,3.5h-1Z"/><path class="cls-4" d="M135.5,170l.5,2.5h-1Z"/><path class="cls-4" d="M195.5,170l.5,2.5h-1Z"/><path class="cls-4" d="M471.5,170l.5,2.5h-1Z"/><path class="cls-4" d="M525.5,170l.5,2.5h-1Z"/><path class="cls-4" d="M174.5,172l.5,3.5h-1Z"/><path class="cls-4" d="M217.5,172l.5,2.5h-1Z"/><path class="cls-4" d="M394.5,172l10.5.5-10.5.5Z"/><path class="cls-4" d="M427.5,172l.5,2.5h-1Z"/><path class="cls-4" d="M450.5,172l.5,3.5h-1Z"/><path class="cls-4" d="M504.5,172l.5,3.5h-1Z"/><path class="cls-4" d="M587.5,172l.5,2.5h-1Z"/><path class="cls-4" d="M608.5,172l.5,2.5h-1Z"/><path class="cls-4" d="M636.5,172l-.5,1.5-.5,1.5-.5-1.5Z"/><path class="cls-4" d="M319.5,173l2.5.5-2.5.5Z"/><path class="cls-4" d="M351.5,173l.5,3.5h-1Z"/><path class="cls-4" d="M108.5,174l.5,6.5h-1Z"/><path class="cls-4" d="M323.5,174l2.5.5-2.5.5Z"/><path class="cls-4" d="M390.5,174l-.5,1.5-1,6,4,3-1.5.5-2.5-1-1-6.5Z"/><path class="cls-4" d="M567.5,174l.5,4.5h-1Z"/><path class="cls-4" d="M95.5,175l.5,6.5H95Z"/><path class="cls-4" d="M194.5,175l.5,3.5h-1Z"/><path class="cls-4" d="M327.5,175l3.5,2.5c.53,3.87-.63,6-3.5,6.5l2.5-3.5q.79-3.7-1.5-4.5Z"/><path class="cls-4" d="M406.5,175l.5,3.5h-1Z"/><path class="cls-4" d="M470.5,175l.5,3.5h-1Z"/><path class="cls-4" d="M524.5,175l.5,3.5h-1Z"/><path class="cls-4" d="M237.5,176l.5,3.5h-1Z"/><path class="cls-4" d="M648.5,176l-.5,1.5-.5,1.5-.5-1.5Z"/><path class="cls-4" d="M607.5,177l.5,2.5h-1Z"/><path class="cls-4" d="M173.5,178l.5,2.5h-1Z"/><path class="cls-4" d="M301.5,178l6.5,3.5-1.5-.5-5-2-6,7,1.5-2.5Z"/><path class="cls-4" d="M351.5,178l.5,4.5h-1Z"/><path class="cls-4" d="M426.5,178l.5,2.5h-1Z"/><path class="cls-4" d="M449.5,178l.5,3.5h-1Z"/><path class="cls-4" d="M503.5,178l.5,2.5h-1Z"/><path class="cls-4" d="M266.5,179l1,2Z"/><path class="cls-4" d="M585.5,179l-4,5-1.5-.5Z"/><path class="cls-4" d="M156.5,180l4.5,3.5-1.5.5-2.5-1Z"/><path class="cls-4" d="M568.5,180l2,3,8.5,1.5-6.5.5-4.5-3.5Z"/><path class="cls-4" d="M633.5,180l.5,3.5h-1Z"/><path class="cls-4" d="M646.5,180l.5,2.5h-1Z"/><path class="cls-4" d="M135.5,181l.5,2.5h-1Z"/><path class="cls-4" d="M193.5,181l.5,3.5h-1Z"/><path class="cls-4" d="M238.5,181l2,3Z"/><path class="cls-4" d="M405.5,181l.5,2.5-2.5,1.5v-1Q406.4,184.71,405.5,181Z"/><path class="cls-4" d="M469.5,181l.5,2.5h-1Z"/><path class="cls-4" d="M523.5,181l.5,2.5h-1Z"/><path class="cls-4" d="M606.5,181l.5,1.5-1.5,2.5-.5-1.5Z"/><path class="cls-4" d="M309.5,182l4.5,1.5-2.5.5Z"/><path class="cls-4" d="M547.5,182l.5,2.5h-1Z"/><path class="cls-4" d="M107.5,183l.5,3.5h-1Z"/><path class="cls-4" d="M217.5,183l.5,2.5h-1Z"/><path class="cls-4" d="M425.5,183l.5,3.5h-1Z"/><path class="cls-4" d="M502.5,183l.5,3.5h-1Z"/><path class="cls-4" d="M94.5,184l.5,2.5H94Z"/><path class="cls-4" d="M163.5,184l2.5.5-2.5.5Z"/><path class="cls-4" d="M250.5,184l3.5.5-3.5.5Z"/><path class="cls-4" d="M315.5,184l10.5.5-10.5.5Z"/><path class="cls-4" d="M448.5,184l.5,2.5h-1Z"/><path class="cls-4" d="M136.5,185l2.5,5.5-2-1Z"/><path class="cls-4" d="M394.5,185l4.5.5-4.5.5Z"/><path class="cls-4" d="M270.5,186l2.5,4.5h-1Z"/><path class="cls-4" d="M368.5,186q1.8,8.2,8,12l5.5,2.5-1.5.5L370,192.5C368,190.83,367.5,188.67,368.5,186Z"/><path class="cls-4" d="M468.5,186l.5,3.5h-1Z"/><path class="cls-4" d="M632.5,186l.5,2.5h-1Z"/><path class="cls-4" d="M645.5,186l.5,2.5h-1Z"/><path class="cls-4" d="M192.5,187l.5,2.5h-1Z"/><path class="cls-4" d="M294.5,187l-1.5,2.5-.5,1.5-.5-1.5Z"/><path class="cls-4" d="M349.5,187l.5,1.5-2,1Z"/><path class="cls-4" d="M522.5,187l.5,2.5h-1Z"/><path class="cls-4" d="M603.5,188l-1.5,2.5-4.5,5.5-8,4v-1a21.19,21.19,0,0,0,11.5-7.5Z"/><path class="cls-4" d="M106.5,189l.5,3.5h-1Z"/><path class="cls-4" d="M424.5,189l.5,2.5h-1Z"/><path class="cls-4" d="M447.5,189l.5,3.5h-1Z"/><path class="cls-4" d="M501.5,189l.5,3.5h-1Z"/><path class="cls-4" d="M93.5,190l.5,2.5H93Z"/><path class="cls-4" d="M219.5,190l6,7,2.5,1.5-1.5-.5-6.5-5.5Z"/><path class="cls-4" d="M347.5,191l-6,7-5,2v-1A17.22,17.22,0,0,0,347.5,191Z"/><path class="cls-4" d="M550.5,191l2,3Z"/><path class="cls-4" d="M644.5,191l.5,3.5h-1Z"/><path class="cls-4" d="M139.5,192l5,6Z"/><path class="cls-4" d="M191.5,192l.5,3.5-5.5,3.5v-1l4.5-2.5Z"/><path class="cls-4" d="M467.5,192l.5,3.5h-1Z"/><path class="cls-4" d="M521.5,192l.5,3.5h-1Z"/><path class="cls-4" d="M631.5,192l.5,2.5h-1Z"/><path class="cls-4" d="M272.5,193l-2,3Z"/><path class="cls-4" d="M294.5,194l4.5,3.5-1.5-.5Z"/><path class="cls-4" d="M423.5,194l.5,2.5-5.5,2.5v-1l4.5-1Z"/><path class="cls-4" d="M92.5,195l.5,9.5H92Z"/><path class="cls-4" d="M105.5,195l.5,2.5h-1Z"/><path class="cls-4" d="M446.5,195l.5,2.5h-1Z"/><path class="cls-4" d="M500.5,195l.5,2.5h-1Z"/><path class="cls-4" d="M555.5,196l4.5,3.5-1.5-.5Z"/><path class="cls-4" d="M630.5,196l-2,3Z"/><path class="cls-4" d="M643.5,197l.5,2.5h-1Z"/><path class="cls-4" d="M146.5,198l2.5,1.5-1.5.5Z"/><path class="cls-4" d="M466.5,198l.5,1.5-1.5,1.5h-18l-1-2,1,1H466Z"/><path class="cls-4" d="M520.5,198l.5,1.5-1.5,1.5h-18l-1-2,1,1H520Z"/><path class="cls-4" d="M110.5,199q2.81-.6,1.5,5.5h-1Z"/><path class="cls-4" d="M182.5,199l2.5.5-2.5.5Z"/><path class="cls-4" d="M178.5,200l2.5.5-2.5.5Z"/><path class="cls-4" d="M257.5,200l2.5.5-2.5.5Z"/><path class="cls-4" d="M410.5,200l2.5.5-2.5.5Z"/><path class="cls-4" d="M153.5,201l2.5.5-2.5.5Z"/><path class="cls-4" d="M172.5,201l3.5.5-3.5.5Z"/><path class="cls-4" d="M234.5,201l2.5.5-2.5.5Z"/><path class="cls-4" d="M253.5,201l2.5.5-2.5.5Z"/><path class="cls-4" d="M308.5,201l3.5.5-3.5.5Z"/><path class="cls-4" d="M329.5,201l2.5.5-2.5.5Z"/><path class="cls-4" d="M383.5,201l2.5.5-2.5.5Z"/><path class="cls-4" d="M404.5,201l3.5.5-3.5.5Z"/><path class="cls-4" d="M564.5,201l2.5.5-2.5.5Z"/><path class="cls-4" d="M581.5,201l3.5.5-3.5.5Z"/><path class="cls-4" d="M158.5,202l9.5.5-9.5.5Z"/><path class="cls-4" d="M240.5,202l8.5.5-8.5.5Z"/><path class="cls-4" d="M315.5,202l9.5.5-9.5.5Z"/><path class="cls-4" d="M389.5,202l10.5.5-10.5.5Z"/><path class="cls-4" d="M569.5,202l8.5.5-8.5.5Z"/><path class="cls-4" d="M622.5,202l.5,3.5h-1Z"/><path class="cls-4" d="M641.5,204l.5,1.5-5,4Z"/><path class="cls-4" d="M110.5,207l.5,2.5-2.5,2.5h-9v-1h9l1.5-1.5Z"/><path class="cls-4" d="M94.5,208l3.5,2.5-1.5-.5Z"/><path class="cls-4" d="M621.5,208l.5,3,11,.5-10.5.5Q620,211,621.5,208Z"/><path class="cls-5" d="M529.5,102h17l.5,2.5L528.5,123l-2,1h-11l-1.5-3.5Z"/><path class="cls-5" d="M481.5,104h15l1.5,1.5-1,12-2.5,4.5-8-1-6.5,4.5-2,7.5h12.5l1.5,1.5-2,14-1.5,1.5h-13l-.5,2.5L466,200H447.5l-1.5-1.5,4-17,9-55,5-12,5.5-5.5Z"/><path class="cls-5" d="M187,106h19v6.5l-5,23-8,51-2,9-1.5,1.5-18,5h-15q-12-2-17.5-10.5l-4-11v-7l5-24,8.5-12.5q8.4-9.1,28-7l5.5,2Zm-20,41-2,1-5,5-4,17q-1,9,1,13l7,2,8-1,2-3,5-33Q175,146,167,147Z"/><path class="cls-5" d="M114.5,122H125v5.5l-2.5,6.5c-3.67-.67-5.83.17-6.5,2.5l-4,21-6.5,8.5q-2.2-.7-1.5,1.5,5.81,3.7,4,15l-3,15,6,3q1.09,7.6-2.5,10.5-11.2,2.2-14.5-3.5l-1-2v-12l3-12v-6L95,173l-4-1,1-10a8.42,8.42,0,0,0,7-4.5l2-5,3-20a13.28,13.28,0,0,1,5.5-8.5Z"/><path class="cls-5" d="M638.5,122q11.1-1.6,14.5,4.5l1,2v11l-3,13v6l5,4-1,8-1.5,1.5-4.5,2.5-3,6v5l-4,18-5.5,6.5L622,211l1-10.5,1.5-1.5c3.67.67,5.83-.17,6.5-2.5l3-13v-5a16.76,16.76,0,0,1,6.5-10.5l2.5-1.5q-6-4-4-16l3-15-7-3,2-9Z"/><path class="cls-5" d="M245.5,130h17l12.5,6,5,10.5v11L277,173H238.5l-.5,2.5-1,4,3.5,4.5,2,1h11l12-6,2.5,2.5,5,11q-11.1,11.4-35.5,9.5-11-2-16.5-9.5l-4-10v-7l6-28A24.93,24.93,0,0,1,233.5,135Zm6.5,16-8,3-3,6c-.67,3.33-.33,5,1,5h18l1-3q1-7-2-9Z"/><path class="cls-5" d="M322.5,130h18l15.5,6v2.5L346.5,150h-3l-6-3-9-1-6.5,2-1,4.5,1,2.5,17.5,5,8.5,6.5,4,11-4,13-6.5,6.5q-9.79,7.2-29,5l-11-3-9.5-6.5a32.08,32.08,0,0,1,9.5-13.5l10,5,14,1,5.5-4.5c.53-3.13-.3-5-2.5-5.5l-13-3a24.38,24.38,0,0,1-12.5-9.5q-3.11-4.4-2-13,2.1-9.41,8.5-14.5Z"/><path class="cls-5" d="M395.5,130q12.71-1.69,21,1l10.5,8.5q4.8,7.2,3,21L423,197l-8.5,3-11,2h-17q-10.39-2.1-15.5-9.5-4.2-4.8-3-15,2-10,9.5-14.5l11-4H410v-8.5l-1.5-1.5q-3.3-2.7-10-2l-11,2-4,2L378,136.5l5.5-3.5Zm-.5,42-4,2-3,4,1,6,6,2,10-1,1-1,1-11Q403,171,395,172Z"/><path class="cls-5" d="M576.5,130q22.8-2.7,30.5,9.5,5.81,6.7,4,21l-4,20a28.47,28.47,0,0,1-9.5,14.5q-9.79,8.7-30,7-9.5-1.5-14.5-7.5-6.79-6.7-6-21l1-1,2-17,3-9,5-7.5,11.5-7Zm3.5,17-3,1-6,7-4,20,1,7,5,3,9-1,5-6,4-19-1-8Q588,146,580,147Z"/><path class="cls-5" d="M514.5,131h15l2.5,1-12,68H501.5l-1.5-1.5,2-6,1-11,2-6v-5l7-38.5Z"/></svg>