<?xml version="1.0" encoding="utf-8"?>
<!-- Generator: Adobe Illustrator 25.2.1, SVG Export Plug-In . SVG Version: 6.00 Build 0)  -->
<svg version="1.1" id="Capa_1" xmlns="http://www.w3.org/2000/svg" xmlns:xlink="http://www.w3.org/1999/xlink" x="0px" y="0px"
	 viewBox="0 0 725 513.3" style="enable-background:new 0 0 725 513.3;" xml:space="preserve">
<style type="text/css">
	.st0{fill:#00FFE7;}
</style>
<path class="st0" d="M321.7,233.7v-67.6h74.8v67.6H321.7z M396.5,0v69.9h-74.8V0H396.5z M484.8,166.2v67.6h-74.8v-67.6H484.8z
	 M308.1,83.7v68.7h-74.7V83.7H308.1z M396.5,83.7v68.7h-74.8V83.7H396.5z M710.2,198.1l14.7,10.3L714.8,228
	c-10.4,21.2-29,37.3-51.5,44.5l-0.6,0.2c-15.2,4.6-30.9,7-46.8,6.9c-1.5,0-2.9,0-4.4-0.1h0.2c-28.8,72.9-78.1,132.4-140.7,172.6
	l-1.4,0.9c-62.1,37.9-137.2,60.3-217.4,60.3c-4.2,0-8.4-0.1-12.6-0.2h0.6c-83.1,0-145.7-25.2-188-75.6
	c-20.8-26.1-35.7-56.4-43.8-88.8L8,347.1c-5.4-20.1-8.1-40.8-8-61.6c0-11.6,0.8-23.2,2.5-34.7l-0.2,1.3h492.7c0.9,0,2,0,3.1,0
	c18.1,0,35.9-4.4,51.8-12.9l-0.6,0.3c-9.2-15.1-14.1-32.5-14-50.3c0-3.3,0.2-6.5,0.5-9.7v0.4c0.9-21.3,7.3-41.9,18.4-60.1l-0.3,0.5
	l11.3-16l15.9,11.5c24.4,16.6,41.1,42.3,46.2,71.4l0.1,0.7c9.1-1.4,18.3-2.1,27.5-2.1c6.4,0,12.8,0.3,19.2,1l-0.8-0.1
	c13.2,0.5,26,4.5,37.1,11.6L710.2,198.1L710.2,198.1z M131.5,166.1v67.6H56.7v-67.6H131.5z M219.8,166.1v67.6h-74.8v-67.6H219.8z
	 M308.2,166.1v67.6h-74.8v-67.6H308.2z M219.8,83.6v68.7h-74.7V83.6L219.8,83.6z"/>
</svg>
