<svg id="Capa_1" data-name="Capa 1" xmlns="http://www.w3.org/2000/svg" viewBox="0 0 724.96 513.36"><defs><style>.cls-1{fill:#00ffe7;}</style></defs><path class="cls-1" d="M321.7,233.68V166.07h74.78v67.61ZM396.48,0V69.88H321.7V0Zm88.36,166.19v67.57H410.05V166.19ZM308.1,83.74v68.72H233.36V83.74Zm88.35,0v68.72H321.7V83.74ZM710.23,198.13,725,208.44,714.76,228a87.29,87.29,0,0,1-51.49,44.51l-.61.17a158.4,158.4,0,0,1-46.77,6.93c-1.48,0-2.94,0-4.4-.07h.21C582.94,352.45,533.61,411.93,471,452.18l-1.43.88c-62.13,37.88-137.16,60.3-217.37,60.3-4.23,0-8.42-.07-12.63-.2h.61q-124.59,0-188-75.59A233.35,233.35,0,0,1,8.34,348.76L8,347.14a237,237,0,0,1-8-61.63,244.16,244.16,0,0,1,2.48-34.7l-.15,1.28H498.2A109.77,109.77,0,0,0,550,239.15l-.61.3a96,96,0,0,1-14-50.26q0-4.91.48-9.69v.41a125.15,125.15,0,0,1,18.42-60.08l-.29.53,11.34-16,15.86,11.46a109.12,109.12,0,0,1,46.24,71.42l.11.66a178,178,0,0,1,27.48-2.07,184.42,184.42,0,0,1,19.23,1l-.79-.06a73.51,73.51,0,0,1,37.08,11.59l-.29-.19ZM131.48,166.07v67.61H56.67V166.07Zm88.35,0v67.61H145.07V166.07Zm88.36,0v67.61H233.36V166.07ZM219.81,83.61v68.72H145.07V83.61Z" transform="translate(0)"/></svg>