<svg id="Capa_1" data-name="Capa 1" xmlns="http://www.w3.org/2000/svg" viewBox="0 0 800 800"><defs><style>.cls-1{fill:#00ffe7;}</style></defs><path class="cls-1" d="M0,0V800H800V0ZM331.67,266.73h60.16a3.71,3.71,0,0,1,3.7,3.7v258.9a3.7,3.7,0,0,1-3.66,3.7h-60.2a3.69,3.69,0,0,1-3.7-3.66V433.7H263.13v95.67a3.69,3.69,0,0,1-3.66,3.66H199.2a3.66,3.66,0,0,1-3.67-3.66v-259a3.7,3.7,0,0,1,3.67-3.67h60.2a3.69,3.69,0,0,1,3.67,3.67V366H328V270.37a3.7,3.7,0,0,1,3.67-3.67Zm100,0h192.6a3.7,3.7,0,0,1,3.7,3.67V529.3a3.66,3.66,0,0,1-3.6,3.73H431.6a3.66,3.66,0,0,1-3.67-3.66v-259a3.7,3.7,0,0,1,3.67-3.67Z"/></svg>