<svg id="Capa_1" data-name="Capa 1" xmlns="http://www.w3.org/2000/svg" viewBox="0 0 800 269.71"><defs><style>.cls-1{fill:#ff2d78;}.cls-2{fill:#00ffe7;}</style></defs><path class="cls-1" d="M135.17,264.85a134.11,134.11,0,0,1,61.91,15h0l2.56,1.28-2.24,1.76a41.73,41.73,0,0,0-12.48,16.32h0l-.8,1.76-1.6-.8A110.16,110.16,0,0,0,25,399.86c0,60.79,49.27,110.38,110.21,110.38A110.5,110.5,0,0,0,245.55,399.86a106.49,106.49,0,0,0-8.48-42.23h0l-.8-1.76,1.76-.8a42.72,42.72,0,0,0,17-11.52h0l1.76-2.24,1.12,2.56A132.81,132.81,0,0,1,270,399.54c0,74.38-60.63,135-135,135S0,473.92,0,399.54,60.63,264.53,135.17,264.85Zm0,73.58A61.59,61.59,0,1,1,73.59,400,61.82,61.82,0,0,1,135.17,338.43Zm88.15-50.87a28.16,28.16,0,1,1-28.16,28.16A28.16,28.16,0,0,1,223.32,287.56Z" transform="translate(0 -264.84)"/><path class="cls-2" d="M750.89,338.27A53.13,53.13,0,0,1,777.76,346c9.44,5.6,16.32,11.2,22.24,20.32h0l-20.48,13.91s-11.19-17.59-29.43-17.59c-21.6,0-35.67,16.63-35.67,37.43s14.23,37.43,35.67,37.43c18.24,0,29.27-17.91,29.27-17.75h0L800,433.45c-5.92,9.12-12.8,14.56-22.24,20.32a53.61,53.61,0,0,1-26.87,7.68c-35.67,0-62.87-26.88-63-61.59C688,365.15,715.22,338.27,750.89,338.27Zm-308.58.16c29.6,0,61.59,21,61.43,61.59,0,35.67-27.36,61.43-60.95,61.43-37.11,0-62.07-28.64-62.07-62.07C380.72,366.59,406.48,338.43,442.31,338.43Zm-74.22,2.72V458.73H339.61V341.15Zm307.29,0V458.73H646.91V341.15Zm-94.22-2.72c36,0,49.43,24.8,49.91,55.67h0v64.47H602.6V391.22c0-15.68-10.72-29-24.32-29-14.07,0-32.95,11.35-32.95,25.27h0v71.19H516.86V341.15h23.67l1.76,12.64.14-.13C546.05,350.28,561.42,338.43,581.16,338.43ZM442.63,362.59c-19.83,0-35,15.83-35,37.27s15.36,37.43,34.87,37.43c17.92,0,34.55-14.72,34.55-37.27C477,377,460.23,362.59,442.63,362.59Z" transform="translate(0 -264.84)"/></svg>