<svg id="Capa_1" data-name="Capa 1" xmlns="http://www.w3.org/2000/svg" viewBox="0 0 700 700"><defs><style>.cls-1{fill:#00ffe7;}.cls-2{fill:#0a0a0f;}</style></defs><rect class="cls-1" width="700" height="700"/><path class="cls-2" d="M425,582.2l51.54-34.11c4,12.69,29.62,42.83,61.92,42.83s47.31-17.65,47.31-29.35c0-31.88-33-43.12-48.84-48.51-2.58-.88-4.71-1.61-6.16-2.24-.75-.33-1.88-.76-3.32-1.31-17.63-6.73-82.64-31.57-82.64-103.58,0-79.31,76.53-88.42,93.84-88.42,11.33,0,65.77,1.38,92.89,52.34l-50,34.9c-11-22.21-29.17-29.55-40.38-29.55-27.7,0-33.47,20.3-33.47,29.55,0,25.92,30.09,37.55,55.49,47.36,6.65,2.57,13,5,18.36,7.56C609.23,472.75,650,494.16,650,561.57c0,33.77-28.32,88.44-99.62,88.44C454.62,650,429.23,592.51,425,582.2Z"/><path class="cls-2" d="M175,589l53.72-34.09C232.93,567.57,249.28,591,273,591s35.88-24.37,35.88-36.07V325H375V554.88c1,31.71-16.56,95.12-94.17,95.12C209.47,650,179.81,607.6,175,589Z"/></svg>