<?xml version="1.0" encoding="utf-8"?>
<!-- Generator: Adobe Illustrator 25.2.1, SVG Export Plug-In . SVG Version: 6.00 Build 0)  -->
<svg version="1.1" id="Capa_1" xmlns="http://www.w3.org/2000/svg" xmlns:xlink="http://www.w3.org/1999/xlink" x="0px" y="0px"
	 viewBox="0 0 700 700" style="enable-background:new 0 0 700 700;" xml:space="preserve">
<style type="text/css">
	.st0{fill:#00FFE7;}
	.st1{fill:#0A0A0F;}
</style>
<rect class="st0" width="700" height="700"/>
<path class="st1" d="M425,582.2l51.5-34.1c4,12.7,29.6,42.8,61.9,42.8s47.3-17.7,47.3-29.3c0-31.9-33-43.1-48.8-48.5
	c-2.6-0.9-4.7-1.6-6.2-2.2c-0.8-0.3-1.9-0.8-3.3-1.3c-17.6-6.7-82.6-31.6-82.6-103.6c0-79.3,76.5-88.4,93.8-88.4
	c11.3,0,65.8,1.4,92.9,52.3l-50,34.9c-11-22.2-29.2-29.5-40.4-29.5c-27.7,0-33.5,20.3-33.5,29.5c0,25.9,30.1,37.5,55.5,47.4
	c6.7,2.6,13,5,18.4,7.6c27.7,13.1,68.5,34.5,68.5,101.9c0,33.8-28.3,88.4-99.6,88.4C454.6,650,429.2,592.5,425,582.2z"/>
<path class="st1" d="M175,589l53.7-34.1c4.2,12.7,20.6,36.1,44.3,36.1s35.9-24.4,35.9-36.1V325H375v229.9
	c1,31.7-16.6,95.1-94.2,95.1C209.5,650,179.8,607.6,175,589z"/>
</svg>
