<svg id="Capa_1" data-name="Capa 1" xmlns="http://www.w3.org/2000/svg" viewBox="0 0 617.5 749.87"><defs><style>.cls-1{fill:#00ffe7;}</style></defs><path class="cls-1" d="M373.08,202c-.63,1.8-3.53,1.52-5.18,2.05-1.47.77-2.67,2.12-4.37,2.12-1.55,0-4-.62-4.25-2.12C359,202,362,199.9,364,199.9a10,10,0,0,1,8.15-.13l-.08,0a1.49,1.49,0,0,1,1,1.38.71.71,0,0,1,0,.2h0V202h.1Zm17.2,0v-.68c-.21-.62.39-1.3.9-1.55a9.87,9.87,0,0,1,3.92-.8,10,10,0,0,1,4.25.95l-.05,0c2,0,5,2.1,4.68,4.22-.18,1.53-2.66,2-4.23,2-1.72,0-2.87-1.35-4.4-2.12-1.62-.58-4.55-.25-5.1-2Zm33.79,49.45A115.25,115.25,0,0,1,378.2,268.1l-.6.08a73.32,73.32,0,0,1-40.18-14.71l.18.13c-4.8-4.17-8.75-8.37-11.65-10.47-5.13-4.18-4.5-10.4-2.3-10.4,3.4.5,4,4.17,6.22,6.25,3,2,6.73,6.25,11.25,10.4A64.57,64.57,0,0,0,377.37,264l.23,0a98,98,0,0,0,44.07-14.8l-.4.25c6.1-4.23,13.9-10.43,20.25-14.6,4.88-4.25,4.65-8.35,8.73-8.35,4,.5,1.07,4.17-4.6,10.37-6.15,4.7-13.18,9.53-20.45,14l-1.1.63ZM200.43,534.92h.3a28.38,28.38,0,0,1,5.07.48l-.17,0a52.68,52.68,0,0,1,31.82,23.28l.13.22,28.42,52,.1.1a325.14,325.14,0,0,0,37.42,51.47l-.27-.32A85.64,85.64,0,0,1,326,710.75l0,.4v.2a41.55,41.55,0,0,1-34.9,40.4l-.23,0a110.8,110.8,0,0,1-16.67,1.2,114.79,114.79,0,0,1-58.68-16l.53.3a251.38,251.38,0,0,0-88.88-18.8h-.37a30.33,30.33,0,0,1-22.53-12.4l0-.07a49.63,49.63,0,0,1-2.12-14.55,50.38,50.38,0,0,1,6.1-24.15l-.13.27v-.12l.08-.1a75.28,75.28,0,0,0,1.62-15.68,75.74,75.74,0,0,0-2.6-19.77l.13.52a48,48,0,0,1-1.63-12.55,48.86,48.86,0,0,1,3.08-17.17l-.1.35c5-10.43,12.37-12.5,21.55-16.65A87.71,87.71,0,0,0,159,571.57l-.2.15h0v-.07c8-8.38,13.9-18.78,20.88-26.18A27.23,27.23,0,0,1,200.4,535h0Zm337.85-1.52c0,.43,0,1,0,1.48a45.15,45.15,0,0,0,27.28,41.45l.29.12c1.2.08,2.6.12,4,.12a68,68,0,0,0,51.88-23.92l.08-.1,6.6-.3a30.13,30.13,0,0,1,4.4-.3,32.22,32.22,0,0,1,22.07,8.7l0,0,.1.1a56.25,56.25,0,0,1,12.17,27l0,.32a68.84,68.84,0,0,0,12.93,33.5l-.13-.2a58.32,58.32,0,0,1,19.83,35.28l.05.32.1-.22v.55l-.1-.38c-.48,8.18-5.78,12.38-15.55,18.6a260.82,260.82,0,0,0-76.93,49.2l.18-.15a96.87,96.87,0,0,1-63.08,37.15l-.52,0a46.87,46.87,0,0,1-49.08-27.75l-.12-.3-.15-.1a78,78,0,0,1-3.65-23.9,79.46,79.46,0,0,1,5.6-29.45l-.2.55a343.32,343.32,0,0,0,14.2-57.2l.27-2.07a325.87,325.87,0,0,1,6.45-58.75l-.35,2.07a45.28,45.28,0,0,1,19.85-30.62l.18-.1,1.4-.68ZM470,253.55c15,53.68,33.47,100.05,56.17,143.93l-2-4.18a320.41,320.41,0,0,1,34.07,92.38l.35,2.09h.78a59.33,59.33,0,0,1,15.68,2.1l-.43-.1a124.15,124.15,0,0,0,4.33-32.9,126.73,126.73,0,0,0-38.33-91l0,0c-6.87-6.25-7.25-10.47-3.84-10.47a181.18,181.18,0,0,1,51.12,84.85l.3,1.28A106.2,106.2,0,0,1,591.7,469a109.8,109.8,0,0,1-3,25.5l.16-.75a22.23,22.23,0,0,0,6.27,2.08l.15,0c32.25,16.68,44.15,29.3,38.43,48v-1.36c-1.88-.1-3.75,0-5.63,0h-.5c4.72-14.6-5.67-25.77-33.27-38.25-28.58-12.5-51.43-10.5-55.3,14.53a23.88,23.88,0,0,0-.55,4.12V523a39.29,39.29,0,0,1-6.25,1.95L532,525a57.13,57.13,0,0,0-24.72,36.72l-.05.35a310.36,310.36,0,0,0-6.4,58.08v.4a235.2,235.2,0,0,1-10.45,43.82l.5-1.65a144.14,144.14,0,0,1-167.68,10.08l.6.35a83.34,83.34,0,0,0-12.57-16.68l0,0a45.52,45.52,0,0,0-8.55-10.38l0,0a51.64,51.64,0,0,0,14.9-2.2l-.37.1a19.46,19.46,0,0,0,9.77-10.3l.05-.13a41.29,41.29,0,0,0-10.8-36.35l0,0a199.78,199.78,0,0,0-54.9-47l-.95-.5a79.87,79.87,0,0,1-35.75-43.05l-.18-.55a96,96,0,0,1-3.67-26.55A98.63,98.63,0,0,1,224.08,454l-.15.68a303.59,303.59,0,0,1,40.5-87.4l-.7,1.07c3.35-2,1.15,4.23-12.75,30.43a115.48,115.48,0,0,0-3.53,121l-.3-.55A253.2,253.2,0,0,1,268,427.75l-.62,1.62c26.37-47.55,46.35-102.77,56.87-161.3l.5-3.27c1.5,1.12,6.78,4.22,9,6.3,6.8,4.15,11.87,10.4,18.42,14.52a37,37,0,0,0,25.88,10.5c.52,0,1.05,0,1.57,0h-.07c1.22.1,2.35.2,3.42.2a66.49,66.49,0,0,0,31.48-8.55l-.33.17c9.05-4.17,16.25-10.42,23.12-12.5h.15a60.52,60.52,0,0,0,32.5-21.72l.1-.15Zm-87.48-66.92h.23a63.12,63.12,0,0,1,37.92,12.57l-.17-.12a137.82,137.82,0,0,0,31.87,14.35l1,.25h.09A35.14,35.14,0,0,1,468.32,226l.08.12v-4.1a17.78,17.78,0,0,1,1.85,7.9,18,18,0,0,1-1.38,6.9l.05-.12a55.93,55.93,0,0,1-32.82,26.2l-.4.1v.05c-8.37,4.22-15.65,10.4-24.2,14.52A59.4,59.4,0,0,1,381,286h-1.08c-.55,0-1.2.05-1.85.05a35.18,35.18,0,0,1-12.4-2.22l.25.07a112.06,112.06,0,0,1-10.42-6.42l.35.25a179.65,179.65,0,0,0-18.48-14.13l-.65-.4V263h-.15a49.26,49.26,0,0,1-21.3-21.9l-.12-.3a15.12,15.12,0,0,1-1.05-5.65,15.65,15.65,0,0,1,7-13.05l.05,0c7-4.23,11.88-8.48,15.1-10.5a63.69,63.69,0,0,0,5.5-4.1h0v-.1a57.8,57.8,0,0,1,25.8-18.65l.4-.13a55.24,55.24,0,0,1,14.53-2h0Zm-42.8-53.3h1.13a21.87,21.87,0,0,1,12.53,4.25l-.05-.05A43.19,43.19,0,0,1,364,151.78l.1.27a53.33,53.33,0,0,1,4.78,20.75v.2c.09,1.15.14,2.48.14,3.8,0,1.58-.07,3.15-.22,4.7l0-.2v2.5c-.93.23-1.75.55-2.6.75A86.05,86.05,0,0,0,353.55,191l.35-.2a32.28,32.28,0,0,0,.3-4.55,37.05,37.05,0,0,0-.22-3.95l0,.15V182a41.85,41.85,0,0,0-2.67-10.7l.1.27a19.24,19.24,0,0,0-5.18-8.32h0a7.73,7.73,0,0,0-5.22-2,3.14,3.14,0,0,0-.53,0h-.62a7.3,7.3,0,0,0-5.8,4.07l0,0a17.42,17.42,0,0,0-3.75,8.35v.1a28.48,28.48,0,0,0-.87,7.18,29.46,29.46,0,0,0,.17,3.27v.35a40.41,40.41,0,0,0,2.6,10.7l-.1-.27a19.79,19.79,0,0,0,5.18,8.37h0a4,4,0,0,0,1.05.75h0a38.43,38.43,0,0,0-5.52,4.27l0,0a9.15,9.15,0,0,1-4,2.1l-.08,0a81.11,81.11,0,0,1-8.37-12.15l-.2-.4a54.28,54.28,0,0,1-4.85-20.75v-.1c-.1-1.2-.15-2.6-.15-4a55.2,55.2,0,0,1,2.75-17.25l-.1.4a44.67,44.67,0,0,1,8.9-16.78l-.05.08a17.54,17.54,0,0,1,13.05-6.25h0Zm92.56-1.86h.5A29.68,29.68,0,0,1,451,137.7l-.07,0A48.24,48.24,0,0,1,464.48,154l.12.27a59.77,59.77,0,0,1,5.18,22.53v.1c0-.63.17-1.25.17-1.88v3.28l-.12-.65-.13-.75a56.21,56.21,0,0,1-4.82,22.42L465,199a30,30,0,0,1-6.65,10.48h0a19,19,0,0,0-2.6-1.25l-.15,0a35.62,35.62,0,0,1-9-4.23l.13.08a41,41,0,0,0-6.6-2l-.28-.05a58.66,58.66,0,0,0,5.63-6.07l.1-.13a36.25,36.25,0,0,0,2.75-12.47V182a37.34,37.34,0,0,0-2-12.12l.08.27a46,46,0,0,0-5.81-10.52l.1.12a14.16,14.16,0,0,0-8.27-4.12h-.68a10,10,0,0,0-8,4.1l0,0A24.89,24.89,0,0,0,417.35,170l-.05.18a35.75,35.75,0,0,0-2.8,12.4v.67a68.74,68.74,0,0,0,.68,8.73l-.06-.38c-6-2.1-13.67-4.22-19-6.3a45.2,45.2,0,0,1-.55-6.17v-.7c0-.5,0-1.08,0-1.65a55.07,55.07,0,0,1,4.85-22.7l-.15.35a34.09,34.09,0,0,1,13.3-16.58l.13-.07a30.48,30.48,0,0,1,18.55-6.25h0ZM415.75,25.1c-4.85,0-9.85.25-15,.65-132,10.4-97,150.17-99,196.75a168,168,0,0,1-33.12,94.8l.32-.45a464.73,464.73,0,0,0-83.77,138.07l-1.08,3.18a164.6,164.6,0,0,0-10.2,57.55,171.31,171.31,0,0,0,1.3,21l-.07-.82a13.21,13.21,0,0,0-3.4,4.15l0,.07c-8.12,8.38-14,18.75-20.72,26.2a75,75,0,0,1-24.38,12.35l-.52.13a46.36,46.36,0,0,0-26.88,21l-.12.23a41.27,41.27,0,0,0-4.13,18.12v.7a87.43,87.43,0,0,0,1.83,17.33l-.1-.58a74.87,74.87,0,0,1,2.2,18.25,75.85,75.85,0,0,1-1,12.5l.05-.45a58.62,58.62,0,0,0-3.17,46.78l-.13-.4A45.55,45.55,0,0,0,123.67,731l.28,0a339.25,339.25,0,0,1,89,19.5l-2.35-.75a119.3,119.3,0,0,0,60.9,16.5,120.62,120.62,0,0,0,21.55-1.92l-.72.1A55.66,55.66,0,0,0,330,735.22l.15-.32c18.35-.1,38.42-8.4,70.6-10.43,21.82-1.8,49.17,8.35,80.5,6.25a52.23,52.23,0,0,0,3.7,10.73l-.15-.33.1.1A58.77,58.77,0,0,0,538,775a59.67,59.67,0,0,0,6-.3l-.25,0A109.54,109.54,0,0,0,614,734.12l.18-.22a253.64,253.64,0,0,1,72.62-46.33l1.68-.62a34.31,34.31,0,0,0,20.25-26.48l0-.17a62.73,62.73,0,0,0-22.2-42.9l-.1-.08v-3l-.1-.1a69.92,69.92,0,0,1-10.52-28.55l-.05-.38a54.18,54.18,0,0,0-15.38-32.67h-.1c-1.85-1.67-3.85-2.1-5.87-4.23a11.1,11.1,0,0,0-5.93-2h0a165.13,165.13,0,0,0,7.7-50.32,167.64,167.64,0,0,0-13.53-66.18l.43,1.11a393.39,393.39,0,0,0-68.3-109.23l.35.43a163,163,0,0,1-48.7-104.68l0-.52c.83-67.23,7.38-191.6-110.72-191.78Z" transform="translate(-91.27 -25.1)"/></svg>