<svg id="Capa_1" data-name="Capa 1" xmlns="http://www.w3.org/2000/svg" viewBox="0 0 799.26 235.88"><defs><style>.cls-1{fill:#00ffe7;}.cls-2{fill:#ff2d78;}</style></defs><path class="cls-1" d="M611.54,403.53q15.09,0,24.5,12.89V405.15h7.78v61.67H636V456.25q-10.57,12.66-24.16,12.66a30.89,30.89,0,0,1-23-9.64,32.4,32.4,0,0,1-9.29-23.11,31.47,31.47,0,0,1,9.41-23A30.35,30.35,0,0,1,611.54,403.53Zm-140.45,0q15.09,0,24.5,12.89V405.15h7.78v61.67h-7.78V456.25Q485,468.91,471.44,468.91a30.89,30.89,0,0,1-23-9.64,32.4,32.4,0,0,1-9.29-23.11,31.51,31.51,0,0,1,9.41-23A30.35,30.35,0,0,1,471.09,403.53Zm207.77-20.09q17.76,0,26,2.67a35.92,35.92,0,0,1,14.4,8.24,37.12,37.12,0,0,1,9.29,13.71,51,51,0,0,1,3.25,19,43,43,0,0,1-5.11,20.44,34.14,34.14,0,0,1-13.7,14.4q-8.6,4.88-24.85,4.88h-26.6V383.44ZM564.61,405.15v61.67h-8V405.15ZM346.29,383.44l33.91,68.4,33.68-68.4h1.28l12,83.38h-8.25l-8.13-59.69-29.49,59.69h-2.09l-29.85-60.16-8.13,60.16h-8L345,383.44Zm191.77,20.09a15.83,15.83,0,0,1,7.67,2.09l-4.18,6.73a7,7,0,0,0-3.6-1q-3.6,0-6.86,3.71a23.91,23.91,0,0,0-4.64,9.64q-1.51,5.8-1.51,21.26v20.9h-8.13V405.15h8.13v9a32.25,32.25,0,0,1,6.27-8A10.64,10.64,0,0,1,538.06,403.53Zm227.63-20.09q13.13,0,19.86,5.34t6.85,15.1a19.37,19.37,0,0,1-2.78,10.1,19.63,19.63,0,0,1-7.9,7.32q8.6,2.77,13,8.36a20.33,20.33,0,0,1,4.53,13.24,22.22,22.22,0,0,1-7.55,17.18q-7.56,6.74-19.51,6.74h-23V383.44ZM612,411.19a22.83,22.83,0,0,0-17.3,7.55,25.52,25.52,0,0,0,.11,35.42A23.08,23.08,0,0,0,612,461.59a23.58,23.58,0,0,0,17.3-7.2,26.11,26.11,0,0,0,.12-35.88A23.29,23.29,0,0,0,612,411.19Zm-140.45,0a22.83,22.83,0,0,0-17.3,7.55,25.53,25.53,0,0,0,.12,35.42,23.06,23.06,0,0,0,17.18,7.43,23.6,23.6,0,0,0,17.31-7.2,26.09,26.09,0,0,0,.11-35.88A23.29,23.29,0,0,0,471.55,411.19Zm203.94-19.62h-5.92v67.35h9.64q15.09,0,21.83-1.51a26.77,26.77,0,0,0,12-5.92,29.66,29.66,0,0,0,7.78-10.92,37.61,37.61,0,0,0,2.67-14.63,36.6,36.6,0,0,0-3.13-15.21,29.41,29.41,0,0,0-8.71-11.5,30.72,30.72,0,0,0-13.47-6Q690.47,391.57,675.49,391.57Zm86.6,35.07h-4.64v32.05h10.33q9,0,13.13-1.74a16.45,16.45,0,0,0,7-5.58,13.41,13.41,0,0,0,2.68-7.78,14.56,14.56,0,0,0-6-12.31,19.52,19.52,0,0,0-7.09-3.48Q773.36,426.63,762.09,426.64Zm5-35.07h-9.64v26.71h4.76q10.92,0,16.26-3.49t5.34-10.91Q783.81,391.57,767.09,391.57ZM560.54,381.35a6.73,6.73,0,0,1,6.62,6.62A6.56,6.56,0,0,1,554,388a6.55,6.55,0,0,1,1.86-4.65A6.32,6.32,0,0,1,560.54,381.35Z" transform="translate(0 -282.03)"/><path class="cls-2" d="M347.41,282c-5.49.17-3.76,1.75-15.62,4.67s-26.61,2.05-39.51,7.46c-38.5,16.15-46.23,71.34-81.23,91.11-26.17,14.78-52.56,16-76.3,23.39-15.59,4.89-32.66,14.92-46.79,27.1-11,9.46-11.25,17.77-22.71,29.63C53,478.09,16.53,465.62,0,485c5.32,5.38,7.66,6.89,18.15,5.5-2.17,4.11-15,7.58-12.47,13.64,2.64,6.37,33.59,10.69,61.73-6.3,13.1-7.91,23.54-19.31,44-22,26.41-3.52,56.83,2.26,87.41,6.67C194.23,496,185.13,505,177.84,515.77c-2.26,2.43,4.53,2.71,12.28,1.24,13.94-3.45,24-6.23,34.51-12.35,12.92-7.52,14.88-26.81,30.74-31,8.84,13.58,32.87,16.79,47.78,5.93-13.09-3.7-16.7-31.56-12.29-43.83,4.19-11.61,8.32-30.2,12.54-45.55,4.52-16.5,6.19-37.28,11.66-45.68,8.24-12.64,17.34-17,25.24-24.11s15.13-14.06,14.9-30.37c-.08-5.25-2.8-8.18-7.79-8Z" transform="translate(0 -282.03)"/><path class="cls-2" d="M336.64,291.73c1.32,4.5,3.38,6.56,12.3,7.39-1.3,11.31-8.85,17.5-17.31,23.44-7.45,5.22-15.6,10.25-20.85,18.41-5.37,8.35-8.78,37-17.1,65.2-7.2,24.41-18.07,48.54-37.06,59.12-2-5,.26-14.21-3.69-17.24a154.88,154.88,0,0,1-8.82,20.68C233,490,216.48,506,188.92,510.83c13.08-17.69,25.58-36,25.86-66.47-9.21,2-9,23.73-18.47,29.54a109.36,109.36,0,0,1-18.38.29c-25.38-1.52-51.42-9.15-75.17-1.53C86.59,477.85,73.37,490.09,59.68,496c-16.09,7-28.28,9.85-48.31,7C8.82,499.58,26,495.16,25,487.71c-7.84-.86-12.39,1-19.21-2.06A10.12,10.12,0,0,1,9,482.15c12.49-8.65,48-2,57.48-11.37C72.38,465,76.23,459,80.21,453.15c3.86-5.68,7.86-11.2,13.94-16.17,2.24-1.84,4.68-3.66,7.28-5.43a158.71,158.71,0,0,1,35.8-18c17.19-6,34.61-6.54,52.93-13.54,11.32-4.33,23.63-9.67,33.66-17.15a67.15,67.15,0,0,0,6.72-5.7c28.65-27.93,34.33-77.19,79-81.78,5.4-.55,9.83-.37,13.86-.5C328.06,294.79,332.17,294.25,336.64,291.73ZM282.15,449.4c.53,8.53,5.49,25.47,9.86,29.59-8.57,2.08-23.33-1.36-27.11-7.41C266.84,462.86,277,454.88,282.15,449.4Z" transform="translate(0 -282.03)"/><path class="cls-1" d="M338.81,301.13c-1.68,3.53-4.9,8.08-4.9,17.07,0,1.54-1.17,2.6-1.19.22.08-8.78,2.41-12.58,4.88-17.57C338.75,298.81,339.44,299.65,338.81,301.13Zm-1.69-1.33c-2,3.37-6.77,9.51-7.56,18.47-.14,1.53-1.39,2.48-1.2.11.86-8.74,4.68-14.21,7.58-19C337.25,297.48,337.87,298.38,337.12,299.8ZM335.57,298c-2.26,3.19-9.62,10.57-11.16,19.42-.27,1.52-1.6,2.36-1.21,0,1.6-8.63,7.94-15.42,11.23-19.91C335.9,295.74,336.44,296.69,335.57,298Zm-1.38-2-.74.79c-3.29,3.52-10.93,12.13-13.48,20-.49,1.46-1.92,2.12-1.2-.16,2.79-8.32,10.47-17.29,14.36-21.28C334.84,293.84,335.24,294.86,334.19,296.08ZM294.7,313.91c1.71-7.33,7.4-10.66,17.23-9.85C314.3,315,301,319.4,294.7,313.91Z" transform="translate(0 -282.03)"/></svg>