<svg id="Capa_1" data-name="Capa 1" xmlns="http://www.w3.org/2000/svg" xmlns:xlink="http://www.w3.org/1999/xlink" viewBox="0 0 399.22 120"><defs><style>.cls-1{fill:none;}.cls-2{clip-path:url(#clip-path);}.cls-3,.cls-4{fill:#00ffe7;}.cls-4{fill-rule:evenodd;}</style><clipPath id="clip-path" transform="translate(0)"><rect class="cls-1" width="400" height="120"/></clipPath></defs><g class="cls-2"><path class="cls-3" d="M187.14,59.17c-6.79,0-11.36,3.28-13.14,7h-.22c-1.86-3.86-5.93-7-12-7-4.93,0-8.78,1.85-11.5,6.14h-.21L149.43,60H140v40h11.86V80.09c0-6.14,2.21-10.42,7.21-10.42,3.71,0,5.85,2,5.85,8.28V100h11.79V80.09c0-6.21,2.21-10.42,7.21-10.42,3.72,0,5.86,2,5.86,8.28V100h11.85V73.45c0-4.21-2.21-14.28-14.49-14.28Z" transform="translate(0)"/><path class="cls-3" d="M226.05,59.17c-11,0-19.42,8.14-19.42,21.07,0,13.14,8.5,20.64,20.21,20.64,7.28,0,12.71-2.43,15.14-4.36l-3.79-9.86h-.57a17.28,17.28,0,0,1-11,3.86c-5,0-8.21-2.64-8.42-6.5h26.49s.08-2.36.08-3.57c0-12.71-7.43-21.28-18.72-21.28Zm.22,10.07c4.5,0,7.28,3.07,7.64,6.21H218.62A7.41,7.41,0,0,1,226.27,69.24Z" transform="translate(0)"/><path class="cls-3" d="M272.9,59.17a14.23,14.23,0,0,0-12.14,6.14h-.21L259.91,60h-9.43v40h11.85V80.09c0-7,4.22-10.42,8.36-10.42,3.57,0,6.28,2.35,6.28,7.07V100h11.86V73.24C288.83,65.59,283.69,59.17,272.9,59.17Z" transform="translate(0)"/><path class="cls-3" d="M334.09,100V47H322.66V64.17h-.14c-2.21-3.15-6.14-5-10.86-5-10.71,0-17.85,9.42-17.85,21.42,0,11.64,6.78,20.29,17.57,20.29,6.35,0,9.85-2.5,12.14-6.15h.21l1,5.29ZM314.45,69.67c5.14,0,8.64,4.28,8.64,10.35,0,6.5-3.57,9.93-8.78,9.93s-8.72-3.79-8.72-9.86S309.31,69.67,314.45,69.67Z" transform="translate(0)"/><path class="cls-3" d="M347.91,40.53c-4.78,0-7.42,2.92-7.42,7.28s2.64,7.43,7.42,7.43,7.43-3.14,7.43-7.43S352.7,40.53,347.91,40.53ZM353.7,100V60H341.91v40Z" transform="translate(0)"/><path class="cls-3" d="M386.29,79.81,398.08,60H384.29l-5.85,12.22L372.58,60H358.8l11.78,19.79L357.65,100h13.93l6.86-12.64L385.29,100h13.93Z" transform="translate(0)"/><path class="cls-4" d="M100.83,5.79H20.17A14.27,14.27,0,0,0,5.84,20v80a14.27,14.27,0,0,0,14.33,14.21h80.66A14.27,14.27,0,0,0,115.16,100V20A14.27,14.27,0,0,0,100.83,5.79ZM20.17,0A20.08,20.08,0,0,0,0,20v80a20.08,20.08,0,0,0,20.17,20h80.66A20.08,20.08,0,0,0,121,100V20A20.08,20.08,0,0,0,100.83,0Z" transform="translate(0)"/><path class="cls-3" d="M43.46,80c-3.35,0-5.61,1.61-6.49,3.43h-.11A6.3,6.3,0,0,0,30.93,80a6.27,6.27,0,0,0-5.68,3h-.11l-.31-2.59H20.17V100H26V90.24c0-3,1.1-5.1,3.57-5.1,1.83,0,2.89,1,2.89,4.06V100h5.83V90.24c0-3,1.09-5.1,3.56-5.1,1.84,0,2.9,1,2.9,4.06V100h5.85V87C50.62,84.93,49.53,80,43.46,80Z" transform="translate(0)"/><path class="cls-3" d="M63.89,90.1l5.82-9.68H62.9L60,86.4l-2.9-6H50.3l5.83,9.68L49.74,100h6.88L60,93.81,63.4,100h6.88Z" transform="translate(0)"/></g></svg>