<svg id="Capa_1" data-name="Capa 1" xmlns="http://www.w3.org/2000/svg" viewBox="0 0 799.08 227.68"><defs><style>.cls-1{fill:#ff2d78;}.cls-1,.cls-2{fill-rule:evenodd;}.cls-2{fill:#00ffe7;}</style></defs><path class="cls-1" d="M744.86,380.41c-.72.14-1.44,1.73-1.44,2.6-.14,5.76-.28,21.05-.28,31.43a1.06,1.06,0,0,0,.86.86c2.16.15,7.35.29,11.82.29,6.2,0,9.81-.86,11.83-1.73,5.19-2.59,7.64-8.22,7.64-14.42,0-14-9.81-19.32-24.37-19.32a23.46,23.46,0,0,0-6.06.29Zm37.21,64.45c0-14.27-10.53-22.2-29.56-22.2a83.17,83.17,0,0,0-8.37.14c-.43.15-1,.44-1,.87,0,10.24-.15,26.53.28,32.87.29,2.74,2.31,6.64,4.76,7.79,2.6,1.44,8.51,1.73,12.55,1.73,11.39,0,21.34-6.34,21.34-21.2Zm-66.62-72.38c1.44,0,5.77.43,16.87.43,10.53,0,18.89-.29,29.13-.29,12.54,0,29.84,4.47,29.84,23.22,0,9.23-6.48,16.58-15,20.19-.43.14-.43.43,0,.57,12.11,3,22.78,10.53,22.78,24.66,0,13.84-8.65,22.64-21.2,28.12-7.64,3.31-17.15,4.47-26.81,4.47-7.36,0-27.11-.87-38.07-.58-1.15-.43,1-5.62,2-6.49a26.92,26.92,0,0,0,7.35-1.15c3.9-1,4.33-2.17,4.9-8.08.29-5,.29-22.92.29-35.61,0-17.45.15-29.27,0-35-.14-4.47-1.73-5.91-4.9-6.78-2.45-.43-6.49-1-9.8-1.44-.73-.72,1.72-5.62,2.59-6.2Zm-83.2,89.69c3.46,2.74,10.24,3.89,16.3,3.89,7.78,0,15.57-1.44,23.07-8.22s13-17.59,13-34.6c0-16.3-6.2-29.56-18.88-37.35-7.21-4.47-16.44-6.34-27.11-6.34-3.17,0-6.2.14-8.08,1a4.27,4.27,0,0,0-1.44,2.31c-.29,2.89-.29,25.09-.29,38.07,0,13.41,0,32.15.29,34.31,0,2.17,1,5.48,3.17,6.93Zm-32.73-89.69c2.74,0,13.27.43,18.31.43,9.09,0,15.58-.43,32.73-.43,14.42,0,26.54,3.89,35.19,11.25,10.52,9.08,16,21.63,16,36.91,0,21.77-10,34.32-19.9,41.53s-22.92,11.68-41.38,11.68c-9.8,0-26.67-.29-40.66-.44h-.14c-.72-1.29,1.15-6.34,2.3-6.48,3.75-.44,4.76-.58,6.64-1.3,3-1.16,3.6-2.74,4-8.08.44-9.95.29-21.91.29-35.47,0-9.66.15-28.55-.14-34.6-.44-5.05-2.6-6.35-6.92-7.21a91.29,91.29,0,0,0-9.09-1.44c-.57-1,2-5.48,2.74-6.35Z" transform="translate(0 -286.25)"/><path class="cls-2" d="M425.05,467.79a29,29,0,0,1-9.37-2.45,4.41,4.41,0,0,1-1.15-2.31c-.29-5-.29-19.46-.29-29.12,0-7.79-1.3-14.57-4.62-19.33a19.67,19.67,0,0,0-16.72-8.65c-6.35,0-14.85,4.33-21.92,10.38-.14.15-1.3,1.16-1.15-.43s.29-4.76.43-6.92a3.77,3.77,0,0,0-1-3c-4.61,2.31-17.59,5.34-22.35,5.77-3.46.72-4.32,4-.72,5.19h.14a31.79,31.79,0,0,1,8.51,3.75c1.44,1.15,1.3,2.74,1.3,4,.14,10.81.14,27.39-.29,36.48-.14,3.6-1.15,4.9-3.75,5.48l.29-.15a55.53,55.53,0,0,1-6.06,1.16c-.86.86-.86,5.48,0,6.48,1.59,0,9.95-.43,16.87-.43,9.52,0,14.42.43,16.87.43,1-1.15,1.3-5.48.73-6.48a27.5,27.5,0,0,1-6.64-1c-2.59-.58-3.31-1.88-3.46-4.91-.29-7.64-.29-23.79-.29-34.75,0-3,.87-4.47,1.73-5.33a21.85,21.85,0,0,1,13.41-4.9,14.91,14.91,0,0,1,9.95,3.31c3.17,2.6,4.18,6.35,4.62,9.09.72,6.2.43,18.45.43,29.12,0,5.77-.43,7.21-2.6,7.93a27.17,27.17,0,0,1-6.63,1.3c-1,1-.72,5.48,0,6.49,4.18,0,9.09-.43,16.29-.43,8.94,0,14.71.43,17,.43.72-.86,1-5.05.43-6.2ZM465,412.71c-7.64,0-12.4,5.91-12.4,15.14s4.18,20.19,16,20.19c2,0,5.76-.87,7.49-2.89,2.74-2.59,4.62-7.78,4.62-13.26,0-12-5.91-19.18-15.72-19.18Zm-1,63.73a12.43,12.43,0,0,0-6.2,1.59c-6,3.89-8.79,7.64-8.79,12.11a12.74,12.74,0,0,0,5,10.38c4.19,3.61,10,5.34,17.31,5.34,14.7,0,21.19-7.93,21.19-15.72,0-5.48-2.74-9.08-8.36-11.1-4-1.73-11.39-2.6-20.19-2.6Zm1,37.49c-8.79,0-15.14-1.87-20.62-6.06-5.33-4-7.64-10.09-7.64-14.27a11,11,0,0,1,2.89-7.21c1.58-1.73,5-5.05,13.26-10.67.29-.14.43-.29.43-.58a1,1,0,0,0-.57-.72c-6.78-2.59-8.8-6.77-9.38-9.08v-.29c-.14-.86-.43-1.73.87-2.6,1-.72,2.45-1.58,4-2.59a58.94,58.94,0,0,0,6.63-4.33,1,1,0,0,0,.29-.86,1,1,0,0,0-.58-.72c-10.09-3.32-15.14-10.82-15.14-22.06a21.89,21.89,0,0,1,9.23-18.17c4-3.17,14.13-7.07,20.76-7.07h.44c6.77.15,10.52,1.59,15.86,3.46a26.62,26.62,0,0,0,9.37,1.45c5.62,0,8.07-1.73,10.09-3.75a7.79,7.79,0,0,1,.58,2.88,10.85,10.85,0,0,1-1.88,6.63c-1.15,1.59-3.74,2.74-6.34,2.74h-.72a33.83,33.83,0,0,1-3.75-.57l-.58.28c-.14.29,0,.58.15,1l.14.29a52.89,52.89,0,0,1,.87,6.2c0,11.83-4.76,17-9.81,20.91A33.24,33.24,0,0,1,467,454.67a18.71,18.71,0,0,0-2,.14c-.72,0-1.73.15-1.87.15H463c-1.15.28-4,1.73-4,4.18,0,2.16,1.29,4.76,7.49,5.19,1.3.14,2.6.14,4,.29,8.22.57,18.46,1.3,23.22,2.88a16.16,16.16,0,0,1,10.81,15.43c0,10.67-7.64,20.62-20.33,26.82A46.39,46.39,0,0,1,465,513.93Zm82.19-100.5a13.42,13.42,0,0,0-7.79,2.16c-5.62,3.46-8.5,10.39-8.5,20.48,0,18.89,9.51,32.15,23.07,32.15a14.65,14.65,0,0,0,9.95-3.46c4.18-3.46,6.34-10.38,6.34-20,0-18.74-9.37-31.29-23.07-31.29Zm2.6,61.71c-24.52,0-33.31-18-33.31-34.89,0-11.82,4.76-20.91,14.27-27.4a43.4,43.4,0,0,1,22.06-6.48c18.75,0,31.87,13.4,31.87,32.73,0,13.12-5.19,23.5-15.14,29.84-4.76,3.17-13,6.2-19.75,6.2ZM292.83,413.43a13.42,13.42,0,0,0-7.79,2.16c-5.62,3.46-8.5,10.39-8.5,20.48,0,18.89,9.51,32.15,23.07,32.15a14.67,14.67,0,0,0,9.95-3.46c4.18-3.46,6.34-10.38,6.34-20,0-18.74-9.23-31.29-23.07-31.29Zm2.6,61.71c-24.52,0-33.31-18-33.31-34.89,0-11.82,4.75-20.91,14.27-27.4a43.4,43.4,0,0,1,22.06-6.48c18.75,0,31.87,13.4,31.87,32.73,0,13.12-5.19,23.5-15.14,29.84a39.09,39.09,0,0,1-19.75,6.2ZM130.62,473.7a6.17,6.17,0,0,1-.44-3.31,4.78,4.78,0,0,1,.44-2.17,53.13,53.13,0,0,0,6.34-1.29c2.88-.73,4-2.31,4.18-5.92.43-8.65.43-25.09.29-36.48v-.29c0-1.29,0-2.88-1.59-4a32.32,32.32,0,0,0-8.65-3.75c-1.3-.43-2.16-1.16-2-2s.87-1.87,2.74-2.16c4.76-.44,17.16-3.46,22.06-5.63a3.58,3.58,0,0,1,.73,2.31l-.15,1.59c-.14,1.58-.29,3.46-.29,5.33a1.12,1.12,0,0,0,1.16,1,2,2,0,0,0,.86-.29c9.23-7.21,17.59-9.8,21.92-9.8,7.06,0,12.54,3.31,16.72,10.23a1.08,1.08,0,0,0,1,.58,1,1,0,0,0,.87-.43c8.51-6.49,17-10.38,22.64-10.38,13.41,0,21.34,9.95,21.34,26.82,0,4.75,0,10.95-.15,16.58,0,5-.14,9.66-.14,13,0,.72,1,3,2.59,3.46,2,1,4.76,1.44,8.37,2h.14a11.63,11.63,0,0,1-.86,5.48c-.87,0-2.17,0-3.61-.14-2.74-.14-6.63-.29-11-.29-8.94,0-13.55.15-18,.43-.29-1.15-.43-4.61,0-5.48a45.38,45.38,0,0,0,5.48-1.29c2.88-.87,3.6-2.17,3.75-5.91,0-2.74.57-26.1-.29-31.73s-5.19-12.54-14.71-12.54c-3.6,0-9.23,1.44-14.71,5.62a2.62,2.62,0,0,0-.57,1.44v.15c.57,3,.57,6.49.57,11.82v9.37c0,6.49-.14,12.55,0,17.16,0,3.18,1.88,3.9,3.47,4.47.86.15,1.44.29,2.16.44l4.61,1a7.8,7.8,0,0,1-.14,4,2.78,2.78,0,0,1-.58,1.44c-4.9-.14-10-.28-17.3-.28-2.16,0-5.91.14-9.09.14-2.59,0-5,.14-6.48.14a7.38,7.38,0,0,1-.44-2.88,4.49,4.49,0,0,1,.58-2.6,10,10,0,0,1,2-.28c1.73-.29,3.17-.58,4.61-.87,2.45-.72,3.32-2,3.46-5.19.44-7.21.87-27.83-.14-33-1.73-8.36-6.49-12.54-14.13-12.54-4.47,0-10.1,2.16-14.71,5.62a4.69,4.69,0,0,0-1.3,3.32v8.5c0,10.38,0,23.36.15,29,.14,1.73.72,3.75,4,4.47a30.3,30.3,0,0,0,3.32.57l2.6.43a12.2,12.2,0,0,1-.44,5.48c-1.44,0-3.17-.14-5.19-.14-3-.14-6.92-.29-11.24-.29-5.05,0-8.66.15-11.54.29a34.67,34.67,0,0,0-5.33-.29Z" transform="translate(0 -286.25)"/><path class="cls-2" d="M54.77,508.31l-5.91-2s.72-30.14-10.09-32.3c-7.21-8.36,1.15-354.71,27.1-1.15,0,0-8.94,4.47-10.52,12.11-1.73,7.5-.58,23.36-.58,23.36Z" transform="translate(0 -286.25)"/><path class="cls-1" d="M54.77,508.31l-5.91-2s.72-30.14-10.09-32.3c-7.21-8.36,1.15-354.71,27.1-1.15,0,0-8.94,4.47-10.52,12.11-1.73,7.5-.58,23.36-.58,23.36Z" transform="translate(0 -286.25)"/><path class="cls-2" d="M57.94,479.18s51.77-34,39.66-104.83C85.92,322.88,58.38,306,55.35,299.52c-3.32-4.61-6.49-12.69-6.49-12.69L51,430c0,.15-4.47,43.84,6.92,49.17" transform="translate(0 -286.25)"/><path class="cls-1" d="M57.94,479.18s51.77-34,39.66-104.83C85.92,322.88,58.38,306,55.35,299.52c-3.32-4.61-6.49-12.69-6.49-12.69L51,430c0,.15-4.47,43.84,6.92,49.17" transform="translate(0 -286.25)"/><path class="cls-2" d="M45.83,481.06S-2.76,447.89.12,389.5s37.06-87.1,43.69-92.29c4.33-4.61,4.47-6.34,4.76-11,3,6.49,2.45,97,2.88,107.71,1.3,41.1-2.3,79.31-5.62,87.1Z" transform="translate(0 -286.25)"/><path class="cls-1" d="M45.83,481.06S-2.76,447.89.12,389.5s37.06-87.1,43.69-92.29c4.33-4.61,4.47-6.34,4.76-11,3,6.49,2.45,97,2.88,107.71,1.3,41.1-2.3,79.31-5.62,87.1Z" transform="translate(0 -286.25)"/></svg>