<svg id="Capa_1" data-name="Capa 1" xmlns="http://www.w3.org/2000/svg" viewBox="0 0 800 554.49"><defs><style>.cls-1{fill:none;}.cls-2{fill:#ff2d78;}.cls-3{fill:#00ffe7;}</style></defs><path class="cls-1" d="M0,122.75H800V677.24H0Z" transform="translate(0 -122.75)"/><path class="cls-2" d="M244.88,570.58H223.22q-1.14-54.84-6.32-103.13h-.19l-33,103.13H167.24L134.47,467.45h-.19q-3.65,46.38-4.6,103.13H109.94q1.91-69,9.58-129.4h26.84l31.24,95.08h.19l31.44-95.08h25.68q8.44,70.72,10,129.4m93.93-95.47q-13.23,71.77-34.89,104.32-16.87,25.07-37,25.07-5.37,0-13.22-3.22V589.74a63.22,63.22,0,0,0,9,.58q9.41,0,15.15-5.18c4.6-4.21,6.9-8.95,6.9-14.18q0-5.38-5.37-22.05L255.61,475.1h21.28L294,530.3q5.74,18.81,4.79,26.27,14-37.37,19.56-81.47h20.51Z" transform="translate(0 -122.75)"/><path class="cls-3" d="M627.11,570.58H565.58V441.18h20.7V554.65h40.83Zm-77.63,3.12L525.69,562a43.16,43.16,0,0,0,5.94-5.78q15.18-17.8,15.16-52.7,0-64.22-50.41-64.23-24.72,0-38.53,16.3-15.17,17.83-15.15,52.53,0,34.13,13.41,50,12.27,14.39,37,14.39a59.58,59.58,0,0,0,16.94-2.28l31,18Zm-77.06-29q-7.86-12.64-7.86-40.62,0-48.87,29.71-48.89,15.54,0,22.81,11.68,7.84,12.66,7.86,40.26,0,49.27-29.71,49.28-15.54,0-22.81-11.71m-38.74-10q0,16.45-12.07,27t-32.38,10.54q-19,0-36.8-12.09L358,549.08q15.33,7.68,27.78,7.67c7.8,0,13.89-1.73,18.31-5.16a17.6,17.6,0,0,0,7.05-14.37c0-7.69-5.36-14.26-15.2-19.76-9.07-5-27.21-15.39-27.21-15.39C358.89,494.9,354,487.21,354,474.54q0-15.74,11-25.4t28.48-9.69A59,59,0,0,1,426.22,449l-5,11.12a63.23,63.23,0,0,0-24.9-5.37c-6.64,0-11.76,1.6-15.32,4.8a16,16,0,0,0-5.81,12.28c0,7.65,5.48,14.3,15.58,19.91,9.19,5,27.78,15.58,27.78,15.58,10.09,7.16,15.12,14.78,15.12,27.35" transform="translate(0 -122.75)"/><path class="cls-3" d="M653.09,397.83c-12.52-.31-22.2.95-30.34,4.39-2.34.93-6.08.93-6.4,3.9,1.26,1.26,1.41,3.28,2.51,5,1.88,3.13,5.15,7.34,8.13,9.53,3.28,2.51,6.57,5,10,7.19,6.09,3.76,13,5.95,18.9,9.7,3.46,2.18,6.89,5,10.35,7.35,1.7,1.25,2.78,3.28,5,4.06v-.48c-1.11-1.4-1.42-3.44-2.5-5L664,439a74.57,74.57,0,0,0-16.25-15.78c-5-3.45-16-8.14-18-13.91l-.32-.31a62.9,62.9,0,0,0,10.79-2.53c5.32-1.4,10.17-1.09,15.63-2.49,2.51-.63,5-1.41,7.52-2.19v-1.41c-2.83-2.81-4.85-6.56-7.82-9.22a208.53,208.53,0,0,0-25.8-19.23c-4.85-3.13-11.1-5.15-16.27-7.82-1.86-.94-5-1.4-6.09-3-2.81-3.44-4.39-8-6.42-12-4.52-8.59-8.91-18.12-12.81-27.21-2.82-6.09-4.54-12.18-8-17.82-16.11-26.57-33.61-42.67-60.5-58.47-5.78-3.29-12.66-4.69-20-6.41L488,238.52c-2.51-1.1-5-4.07-7.2-5.48-8.92-5.63-31.89-17.82-38.46-1.72-4.22,10.17,6.26,20.18,9.86,25.34,2.65,3.58,6.1,7.65,8,11.72,1.1,2.66,1.41,5.48,2.51,8.29,2.5,6.88,4.84,14.53,8.13,20.95a73.64,73.64,0,0,0,5.78,9.68c1.25,1.73,3.44,2.5,3.92,5.32-2.19,3.12-2.36,7.82-3.61,11.73-5.62,17.66-3.43,39.55,4.55,52.53,2.49,3.91,8.44,12.51,16.4,9.21,7.05-2.81,5.49-11.72,7.52-19.53.46-1.89.15-3.13,1.09-4.37v.31c2.18,4.37,4.38,8.59,6.41,13,4.85,7.66,13.29,15.63,20.33,20.94,3.74,2.83,6.71,7.66,11.4,9.39v-.47h-.31c-.95-1.4-2.34-2-3.59-3.11a76.48,76.48,0,0,1-8.13-9.38,201.86,201.86,0,0,1-17.5-28.47c-2.52-4.85-4.69-10.16-6.72-15-.95-1.88-.95-4.7-2.52-5.64-2.35,3.44-5.78,6.41-7.49,10.62-3,6.74-3.29,15-4.39,23.63l-.62.31c-5-1.26-6.71-6.41-8.6-10.78-4.69-11.11-5.47-28.94-1.41-41.75,1.09-3.28,5.8-13.6,3.92-16.72-.94-3-4.07-4.7-5.79-7.05a63.19,63.19,0,0,1-5.63-10c-3.75-8.75-5.64-18.45-9.68-27.19-1.89-4.08-5.16-8.3-7.82-12.05-3-4.22-6.25-7.19-8.61-12.19-.78-1.72-1.87-4.54-.62-6.41a2.49,2.49,0,0,1,2.19-2c2-1.72,7.81.46,9.84,1.4a78.76,78.76,0,0,1,15.48,7.82c2.19,1.56,4.54,4.54,7.35,5.32h3.29c5,1.09,10.62.3,15.32,1.71a100.87,100.87,0,0,1,22.52,10.79,138.62,138.62,0,0,1,48.76,53.47c1.87,3.59,2.67,6.88,4.38,10.63,3.29,7.67,7.36,15.49,10.63,23,3.29,7.34,6.42,14.84,11.11,20.95,2.34,3.28,11.74,5,15.95,6.72,3.12,1.4,8,2.65,10.79,4.37,5.32,3.27,10.62,7,15.62,10.64,2.49,1.87,10.31,5.78,10.78,8.91M493.61,262a24.24,24.24,0,0,0-6.4.78v.32h.3c1.26,2.5,3.45,4.23,5,6.41,1.26,2.51,2.35,5,3.59,7.49l.3-.3c2.2-1.57,3.3-4.07,3.3-7.82-.95-1.11-1.1-2.19-1.89-3.28-.92-1.57-2.95-2.35-4.21-3.6" transform="translate(0 -122.75)"/><path class="cls-3" d="M668,570.56h3.24V554.7h-4.86l-4,10.82-4.31-10.82h-4.68v15.86h3.06V558.49h.17l4.51,12.07h2.33l4.5-12.07v12.07Zm-26.1,0h3.43V557.39h4.49V554.7H637.21v2.69h4.67v13.17Z" transform="translate(0 -122.75)"/></svg>