<?xml version="1.0" encoding="utf-8"?>
<!-- Generator: Adobe Illustrator 25.2.1, SVG Export Plug-In . SVG Version: 6.00 Build 0)  -->
<svg version="1.1" id="Capa_1" xmlns="http://www.w3.org/2000/svg" xmlns:xlink="http://www.w3.org/1999/xlink" x="0px" y="0px"
	 viewBox="0 0 607.4 690" style="enable-background:new 0 0 607.4 690;" xml:space="preserve">
<style type="text/css">
	.st0{fill:#00FFE7;}
</style>
<path class="st0" d="M287.2,4.4c10.2-5.9,22.8-5.9,33,0l271,156.3c10,5.7,16.2,16.4,16.2,27.9v312.7c0,11.5-6.2,22.2-16.2,27.9
	l-271,156.3c-10.2,5.9-22.8,5.9-33,0l-67.8-39.1c-15.4-8.8-20.8-28.4-12-43.8c0.1-0.1,0.2-0.3,0.2-0.4c9.2-15.5,29.1-20.6,44.7-11.6
	l51.3,29.6L542,482.8V207.2L303.7,69.8L65.4,207.2v275.5l48.7,28.1c15,4.8,33.6,5.9,46.6,0.2c6.8-2.9,12.4-8.1,15.9-14.7
	c4.6-8.1,8.7-21.6,8.7-43.6V226.4c0.3-18.1,15.2-32.4,33.3-32.1c17.6,0.3,31.8,14.5,32.1,32.1v226.4c0,29.8-5.6,54.8-17,75
	c-10.4,18.9-26.8,33.8-46.6,42.4c-35.2,15.4-74,9.1-97.8,0.6c-1.9-0.7-3.7-1.5-5.4-2.5l-67.8-39.1C6.2,523.5,0,512.8,0,501.3V188.7
	c0-11.5,6.2-22.2,16.2-27.9L287.2,4.4z M316,227.8c17.3-20.4,44.3-33.8,81-33.8c34,0,60,11.5,77.5,29.9
	c12.3,12.8,11.9,33.1-0.9,45.4c-0.1,0.1-0.2,0.2-0.4,0.3c-13.2,12.3-33.8,11.7-46.2-1.3c-3.8-4-11.8-9.6-30-9.6
	c-19.3,0-27.2,6.4-30.9,10.7c-8.5,9.2-8.5,23.3,0,32.5c3.7,4.3,11.6,10.7,30.9,10.7c3.1,0,6.3,0.4,9.3,1.3
	c27,3.9,47.6,15.8,61.7,32.5c28.9,33.2,28.9,82.6,0,115.7c-17.3,20.4-44.3,33.8-81,33.8c-34,0-60-11.5-77.5-29.9
	c-12.3-12.8-11.9-33.1,0.9-45.4c0.1-0.1,0.2-0.2,0.4-0.3c13.2-12.3,33.8-11.7,46.2,1.3c3.8,4,11.8,9.6,30,9.6
	c19.3,0,27.2-6.4,30.9-10.7c8.5-9.2,8.5-23.3,0-32.5c-3.7-4.3-11.6-10.7-30.9-10.7c-3.2,0-6.3-0.5-9.3-1.3
	c-27-3.9-47.6-15.8-61.7-32.5C287.1,310.4,287.1,261,316,227.8L316,227.8z"/>
</svg>
