<svg id="Capa_1" data-name="Capa 1" xmlns="http://www.w3.org/2000/svg" viewBox="0 0 607.49 690.02"><defs><style>.cls-1{fill:#00ffe7;}</style></defs><path class="cls-1" d="M287.24,4.41a33,33,0,0,1,33,0l271,156.32a32.28,32.28,0,0,1,16.23,27.94V501.33a32.26,32.26,0,0,1-16.23,27.93l-271,156.33a33,33,0,0,1-33,0l-67.75-39.08a32.14,32.14,0,0,1-12-43.84l.23-.4a32.9,32.9,0,0,1,44.73-11.63l51.27,29.57L542,482.75V207.25L303.72,69.79,65.42,207.25v275.5l48.7,28.1c15,4.76,33.55,5.92,46.62.21a32.6,32.6,0,0,0,15.87-14.66c4.56-8.11,8.74-21.6,8.74-43.59V226.41a32.71,32.71,0,0,1,65.41,0v226.4c0,29.77-5.62,54.84-17,75a97.69,97.69,0,0,1-46.6,42.38c-35.17,15.36-74,9.07-97.77.62a33.77,33.77,0,0,1-5.43-2.5L16.21,529.22A32.26,32.26,0,0,1,0,501.29V188.67a32.28,32.28,0,0,1,16.23-27.94ZM316,227.84c17.31-20.37,44.33-33.78,81-33.78,34,0,60,11.54,77.51,29.89a32.1,32.1,0,0,1-.94,45.39l-.36.34A33,33,0,0,1,427,268.39c-3.82-4-11.83-9.64-30-9.64-19.29,0-27.24,6.36-30.92,10.7a24,24,0,0,0,0,32.51c3.68,4.33,11.63,10.7,30.92,10.7a33.21,33.21,0,0,1,9.29,1.32c27,3.85,47.61,15.83,61.73,32.45a88.15,88.15,0,0,1,0,115.73c-17.31,20.37-44.34,33.78-81,33.78-34,0-60-11.54-77.51-29.89a32.1,32.1,0,0,1,.94-45.39l.36-.34a33,33,0,0,1,46.24,1.29c3.82,4,11.82,9.64,30,9.64,19.29,0,27.24-6.36,30.92-10.7A24,24,0,0,0,418,388c-3.68-4.33-11.63-10.7-30.92-10.7a33.09,33.09,0,0,1-9.33-1.34c-27-3.85-47.6-15.83-61.72-32.45a88.12,88.12,0,0,1,0-115.73Z" transform="translate(0.02 0.01)"/></svg>