<svg id="Capa_1" data-name="Capa 1" xmlns="http://www.w3.org/2000/svg" viewBox="0 0 601.91 617.92"><defs><style>.cls-1{fill:#00ffe7;}</style></defs><path class="cls-1" d="M570.75,282.89a11.5,11.5,0,0,1-4,8l0,0a18.54,18.54,0,0,1-10.45,5.73l-.1,0a14.58,14.58,0,0,1-2,.15h-.08a15.6,15.6,0,0,1-14.39-9.48l0-.1c-.62-4.56,6.85-8,14.54-9.07s15.84.23,16.46,4.76ZM365.29,293.48a17,17,0,0,1-15.89,10.88h-.2a17.48,17.48,0,0,1-2.18-.15h.08A20.69,20.69,0,0,1,334,296.14l0-.06a11.09,11.09,0,0,1-2.74-7.3v0h0a5.74,5.74,0,0,1,2.39-3.81l0,0a23.33,23.33,0,0,1,16-2.2l-.14,0c8.19,1.14,16.65,5,15.84,10.78ZM593.72,450.94l-2.22-2.76-.91-1.14a126.27,126.27,0,0,0,15-60.17,128,128,0,0,0-3.36-29.22l.17.87a206.57,206.57,0,0,1-2.3-31.07V327a223.84,223.84,0,0,1,3.28-29.44L603.2,299a171.42,171.42,0,0,0,2.9-31.81c0-1,0-2.08,0-3.11v.16a14,14,0,0,0,.39-3.33c0-.56,0-1.09-.08-1.63v.06a195.07,195.07,0,0,0-44.95-83.91l.15.17a202.91,202.91,0,0,0-68.42-52l-1.25-.52a234.8,234.8,0,0,1,48-4.82c1.56,0,3.11,0,4.67,0h-.23c.93,0,2,0,3.11,0a155.16,155.16,0,0,1,121.62,58.47l.25.33a20.45,20.45,0,0,1,1.66,2.47l.06.1c18.74,34.9-7.15,161.56-77.38,271.37Zm-5.93-180.56a185.63,185.63,0,0,1-2.9,26.93l.17-1.13A224,224,0,0,0,581.8,326l0,.51v1.16A229,229,0,0,0,584.35,362l-.16-1.26A118.75,118.75,0,0,1,587,386.56a120.88,120.88,0,0,1-8.43,44.54l.29-.83a81.9,81.9,0,0,1-4.65-9.33l-.23-.6c-1.36-3.27-4.33-8.57-8.41-15.86-15.95-28.43-53.31-95-34.19-122.15,9.82-14,34.75-14.56,56.43-11.92ZM573.05,509.05c-1.06-21.4,7-23.65,15.47-26,1.17-.31,2.34-.66,3.5-1a31.79,31.79,0,0,0,3.36,2.58l.11.06a109.19,109.19,0,0,0,43.58,8.88,111.25,111.25,0,0,0,35.1-5.64l-.79.22a103.84,103.84,0,0,1-24,15.21l-.64.26a131.67,131.67,0,0,1-45.06,9.36h-.2a57.34,57.34,0,0,1-30.73-4l.37.14ZM550,550.79c-.44,4.56-.94,9.69-1.6,15.35l-3.77,11.29a9,9,0,0,0-.48,2.76h0c0,.56,0,1.2,0,1.84A72.1,72.1,0,0,1,541,603.08l.12-.51a119.5,119.5,0,0,0-4.62,26.88l0,.33a68.33,68.33,0,0,1-62.37,65.8l-.26,0c-39.27,8.37-46.24-12.79-52.38-31.46q-.93-2.92-2-5.83a189.76,189.76,0,0,1-5.22-44.72,196.33,196.33,0,0,1,1.22-21.94l-.08.88c.12-2.63.19-5.75.19-8.86a204.86,204.86,0,0,0-9.15-60.73l.4,1.46q.17-11.32.49-22.95v-.24a9,9,0,0,0-.41-2.72l0,.06a38.16,38.16,0,0,0-1.2-5.63l.06.27a37.25,37.25,0,0,0-20-24l-.23-.1a28.3,28.3,0,0,0-12.54-2.89,28.59,28.59,0,0,0-6.26.68l.19,0a215,215,0,0,1,8.54-25.3l-.54,1.51,1.37-3.65c1.53-4.12,3.46-8.38,5.51-12.9a180.87,180.87,0,0,0,17.94-79.13,183.91,183.91,0,0,0-8.52-55.46l.35,1.3a47.89,47.89,0,0,0-47.29-40,48.55,48.55,0,0,0-10.87,1.24l.33-.06a133.44,133.44,0,0,0-45,14.05l.73-.35c-1.72.86-3.41,1.76-5.08,2.68a190.54,190.54,0,0,1,45.22-115.68l-.25.29c2.44-2.46,5-4.78,7.67-7l.19-.14a9.43,9.43,0,0,0,3.77-1.67l0,0A113.58,113.58,0,0,1,407.93,125c2,0,4,0,6,.14l-.26,0a286.22,286.22,0,0,1,31.8,2.23l-1.39-.15a178.93,178.93,0,0,1,104.33,61.05l.23.29a202.78,202.78,0,0,1,36.61,61.76l.46,1.42a69.93,69.93,0,0,0-17.75-2.24,70.66,70.66,0,0,0-51.62,22.27l0,0c-25.7,36.52,14.08,107.43,33.2,141.51,3.5,6.24,6.53,11.64,7.48,13.93a126.57,126.57,0,0,0,20.32,32.49l-.14-.17c1.8,2.25,3.54,4.41,4.89,6.3-10.39,3-29,9.85-27.35,44.22-.31,4-1.1,11.49-2.15,21A159.69,159.69,0,0,0,550,550.24l-.05.57ZM359.19,433.08l-1.37,3.62a210.84,210.84,0,0,0-8.23,24.15l-.39,1.67a65.41,65.41,0,0,1-46.88-20.63l0,0A76.73,76.73,0,0,1,282.06,377l-.06.43a375.48,375.48,0,0,0,3.17-49.36q0-15.51-1.2-30.72l.08,1.34c-.12-2.2-.24-4.14-.31-5.66a100.71,100.71,0,0,1,60.73-20.19c2.74,0,5.43.1,8.11.31l-.36,0a27.8,27.8,0,0,1,21.5,23.75l0,.12a162.46,162.46,0,0,1,7.77,50.17A165.37,165.37,0,0,1,364.75,420l.43-1c-2.17,4.8-4.23,9.34-6,14ZM304.93,535.75a41.54,41.54,0,0,1-11.38-4.67l.19.1a59.49,59.49,0,0,1,12.13-3.56l.39-.07c33.25-6.79,38.38-11.59,49.59-25.75,2.57-3.23,5.48-6.92,9.52-11.39a9.16,9.16,0,0,0,1.89-3.28l0-.06c4.41-3.89,7.05-2.82,11.32-1.07a19.42,19.42,0,0,1,9.53,12.09l0,.15a13.44,13.44,0,0,1-1.2,11.49l0-.06a73.1,73.1,0,0,1-82.58,25.92l.52.14Zm-155.64-131c-13.5-40.89-24.49-89.41-31-139.35l-.43-4.1a119.7,119.7,0,0,1-2-22.06,124.22,124.22,0,0,1,42.31-93.47l.13-.11c47.58-33.43,125.39-13.92,158.25-3.35l-.24.24a223.77,223.77,0,0,0-51.13,142.73c0,1.86,0,3.71.06,5.56v-.26c0,2.12.17,5.13.42,9.25.68,8.44,1.07,18.29,1.07,28.24a370.23,370.23,0,0,1-3.19,48.76l.21-1.87a90,90,0,0,0-1.06,14.13,94.28,94.28,0,0,0,26.31,65.45l0,0a85.41,85.41,0,0,0,6.53,6.12c-9,9.56-28.51,30.7-49.28,55.54-14.7,17.58-24.86,14.2-28.2,13.11a72.46,72.46,0,0,1-31.89-33.61l-.18-.45a440.13,440.13,0,0,1-35.87-87.18l-.81-3.24Zm549,73.28a13.57,13.57,0,0,0-1.49-3.11l0,.06c-3.61-6.78-12.36-8.8-26.11-6-42.83,8.77-59.42,3.37-65.43-.5A601.77,601.77,0,0,0,683,297l1-4.3c7-27.05,20.67-90.71,3.17-121.82a40.32,40.32,0,0,0-4-6.14l.06.08A175.66,175.66,0,0,0,546,99c-1.58,0-3.16,0-4.71.06h.23c-.87,0-1.89,0-2.93,0A250.62,250.62,0,0,0,459,111.92l1.76-.52q-6.64-1.23-13.37-2.1a202.29,202.29,0,0,0-33.82-3.3h-.16c-1.72-.08-3.73-.12-5.77-.12A133.37,133.37,0,0,0,333.92,128l.49-.31c-22.2-8.27-124.06-42.36-187.11,2a141.13,141.13,0,0,0-50.3,108,143,143,0,0,0,2.11,24.47l-.12-.84c7,55.58,18.22,105.6,33.84,153.71l-1.64-5.85A473.88,473.88,0,0,0,169.59,504l-1.27-2.56a92.59,92.59,0,0,0,43.87,45.84l.54.25a42.34,42.34,0,0,0,11.63,1.6,42.79,42.79,0,0,0,36.41-20.17l.1-.18c20.76-24.81,41.2-47,50.39-56.82a79.5,79.5,0,0,0,35.88,9.7h.13l0,.11q-3.27,3.87-6.41,7.87C332.09,500.67,330.27,503,302,508.75c-8.05,1.64-29.4,6-29.71,20.89v.26a15.1,15.1,0,0,0,2.42,8.22l0-.06a45.59,45.59,0,0,0,26,16.24l.31.06a90.91,90.91,0,0,0,27.68,4.22,92.43,92.43,0,0,0,59.8-21.8l-.13.11c-.5,8.61-.77,18.7-.77,28.86a545,545,0,0,0,10.29,105.58l-.56-3.44a66.94,66.94,0,0,0,63.94,49h0a104.18,104.18,0,0,0,22.18-2.55l-.68.12c39.79-3.52,71.14-35.12,74-74.55l0-.25c3.89-22.42,10.4-74,14-105.58a7,7,0,0,1,1.49-3.53l0,0s1.81-1.21,11.07.79l1.14.18,6.58.58.39,0c2,.08,4.29.14,6.61.14a159.62,159.62,0,0,0,60-11.62l-1.06.38c16.69-7.69,46.77-26.58,41.32-43Z" transform="translate(-97 -99)"/></svg>