<?xml version="1.0" encoding="utf-8"?>
<!-- Generator: Adobe Illustrator 25.2.1, SVG Export Plug-In . SVG Version: 6.00 Build 0)  -->
<svg version="1.1" id="Capa_1" xmlns="http://www.w3.org/2000/svg" xmlns:xlink="http://www.w3.org/1999/xlink" x="0px" y="0px"
	 viewBox="0 0 24 24" style="enable-background:new 0 0 24 24;" xml:space="preserve">
<style type="text/css">
	.st0{fill:#00FFE7;}
</style>
<path class="st0" d="M0.1,10.3c0,0.4-0.1,0.8-0.1,1.2h18.2c-0.1-0.1-0.2-0.2-0.2-0.4c-3.1-4-4.8-3.7-7.2-3.8c-0.8,0-1.3,0-4.5,0H0.9
	C0.7,7.9,0.5,8.5,0.4,9.1h9.3v1.2H0.1z M18.4,12.7H0c0,0.3,0,0.7,0.1,1h17C17.7,13.7,18.3,13.3,18.4,12.7L18.4,12.7z M1.1,17
	c2.7,6,9.9,8.7,15.9,6c2.6-1.2,4.8-3.3,6-6H1.1z M12,0C7.7,0,3.7,2.3,1.5,6.1h4.8c3.7,0,3.8,0,4.6,0.1h0.4c1.8-0.1,3.5,0.4,5,1.4
	c1,0.9,1.9,1.9,2.7,3c0.7,0.8,0.8,2,0.4,2.9C19,14.4,18.1,15,17,14.9H0.4c0,0,0.1,0.4,0.2,0.9h22.8c2.1-6.3-1.3-13.1-7.6-15.2
	C14.6,0.2,13.3,0,12,0"/>
</svg>
