<svg id="Capa_1" data-name="Capa 1" xmlns="http://www.w3.org/2000/svg" viewBox="0 0 24.01 24.04"><defs><style>.cls-1{fill:#00ffe7;}</style></defs><path class="cls-1" d="M.11,10.27c0,.4-.09.81-.11,1.21H18.23a2.71,2.71,0,0,0-.24-.35c-3.11-4-4.79-3.67-7.19-3.78H.92a14.09,14.09,0,0,0-.56,1.7H9.7v1.22ZM18.37,12.7H0a5.89,5.89,0,0,0,.09,1h17a1.25,1.25,0,0,0,1.31-1ZM1.06,17a12,12,0,0,0,21.85,0ZM12,0A12,12,0,0,0,1.53,6.11H6.28c3.71,0,3.85,0,4.57,0h.45a8.59,8.59,0,0,1,5,1.37,16.79,16.79,0,0,1,2.71,3,2.9,2.9,0,0,1,.4,2.94,2.48,2.48,0,0,1-2.36,1.45H.39s.1.42.25.89H23.39A12,12,0,0,0,12,0" transform="translate(0 0)"/></svg>