<svg id="Capa_1" data-name="Capa 1" xmlns="http://www.w3.org/2000/svg" viewBox="0 0 2499.99 1184"><defs><style>.cls-1{fill:#ff2d78;}.cls-1,.cls-2{fill-rule:evenodd;}.cls-2{fill:#00ffe7;}</style></defs><path class="cls-1" d="M1164,171.93a179.84,179.84,0,0,0-88.91,118.19l80.44,189a177.6,177.6,0,0,0,93.3,26.5c1.55,0,3.2-.05,4.7-.05a168.44,168.44,0,0,0,41.79-5.94L1164,172ZM1836.78,0h-18.49A801.14,801.14,0,0,0,1242,312.49c15.91,34.1,69.89,170.48,73.87,179.88C1439.21,225,1622.5,62.82,1836.73,0Z" transform="translate(0)"/><path class="cls-2" d="M1249.2,16.12a312.23,312.23,0,0,1,201.06,73c-11.26,6.82-22.42,13.9-33.37,21.24a272.58,272.58,0,0,0-167.69-57.5c-151.73,0-274.78,123.83-274.78,276.59s123,276.64,274.78,276.64S1524,482.25,1524,329.44a277.06,277.06,0,0,0-14-87.31q14.34-16,29.39-31.1a312.27,312.27,0,0,1,23.15,118.41c0,173.06-140.31,313.37-313.37,313.37S935.78,502.5,935.78,329.44,1076.09,16.07,1249.15,16.07Z" transform="translate(0)"/><path class="cls-2" d="M1249.2,81.67a244,244,0,0,1,142.84,46c-9.66,7-19.22,14.21-28.57,21.65a210.5,210.5,0,0,0-114.27-33.58c-117.27,0-212.27,95.67-212.27,213.72s95,213.72,212.27,213.72,212.27-95.68,212.27-213.72a222.07,222.07,0,0,0-1.6-26.35c9-12,18.29-23.71,27.79-35.18a249,249,0,0,1,7.65,61.48c0,136.84-110.19,247.76-246.11,247.76s-246.11-110.92-246.11-247.76S1113.28,81.62,1249.2,81.62ZM59.26,1018.12a52.23,52.23,0,0,0,2.27,13.9,36.87,36.87,0,0,0,8.89,15.08c4.39,4.75,10.69,8.78,19,12.09s19.11,5,32.54,5a150,150,0,0,0,22.06-1.6,74.58,74.58,0,0,0,19.79-5.58,37.39,37.39,0,0,0,14.41-11.11c3.72-4.75,5.58-10.95,5.58-18.65,0-5.58-1.29-10.18-3.93-13.9a31,31,0,0,0-11.1-9.35,88,88,0,0,0-17.1-6.56c-6.62-1.86-13.74-3.72-21.44-5.52l-31.72-7.13q-18.14-4-35-8.73a99.87,99.87,0,0,1-29.86-13.69,68.2,68.2,0,0,1-21-23.41Q4.49,924.43,4.5,901.06A91.84,91.84,0,0,1,6.36,883.6a81.87,81.87,0,0,1,6.4-19.22,85.48,85.48,0,0,1,12.56-19.06A74,74,0,0,1,46.14,829a126.67,126.67,0,0,1,30.48-11.31c11.83-2.89,25.67-4.39,41.63-4.39q33.8,0,56.06,9.5t35.43,23.41c8.79,9.24,15,19.26,18.55,30s5.37,20.46,5.37,29.19h-59.3c-.57-3.21-1.45-7.24-2.69-12.09a32.88,32.88,0,0,0-8.06-14.11c-4.13-4.49-10.07-8.42-17.92-11.72s-18.5-5-31.93-5a94.9,94.9,0,0,0-17.93,1.81,58.72,58.72,0,0,0-16.68,5.73A34.82,34.82,0,0,0,67,880.6c-3.15,4.34-4.76,9.71-4.76,16.07,0,5.58,1,10.12,3.1,13.69a25,25,0,0,0,7.86,8.52,35.62,35.62,0,0,0,10.28,4.75c3.72,1.09,7.07,2,10.07,2.79l72.12,17.05a244.17,244.17,0,0,1,29.24,8.73,84.94,84.94,0,0,1,24.74,13.9,64.2,64.2,0,0,1,17.1,21.8c4.24,8.73,6.41,19.42,6.41,32.13,0,14.31-2.27,26.5-6.82,36.68a78.84,78.84,0,0,1-17.72,25.57,91.16,91.16,0,0,1-24.13,16.48,143.4,143.4,0,0,1-26.14,9.35,164.11,164.11,0,0,1-24.12,4.19c-7.44.67-13.33,1-17.72,1q-40.36,0-65.3-9.92c-16.63-6.61-29.44-14.72-38.54-24.39s-15.08-20-18.13-31.15S0,1026.8,0,1018.07H59.36Zm1355.15,87.67H1356.7V867.68h-.82l-55.23,238.11h-60.59l-54-238.11h-.83v238.11h-57.7V820.88h90.25l53.57,224.57h.83l52.74-224.57h89.43v284.91Zm-335.74-99.6c0,18.7-2.84,34.92-8.47,48.4a84.63,84.63,0,0,1-24.28,33.32c-10.54,8.73-23.35,15.19-38.34,19.27s-31.77,6.15-50.47,6.15a198.3,198.3,0,0,1-22.47-1.4,132.29,132.29,0,0,1-24.74-5.37A138.43,138.43,0,0,1,885.2,1096a83.49,83.49,0,0,1-22.06-17.25,76.71,76.71,0,0,1-17.1-30.38,134.76,134.76,0,0,1-6-38.69V820.83h63v184.89c0,10,1.39,18.65,4.13,25.78a48.5,48.5,0,0,0,11.31,17.67,45.9,45.9,0,0,0,16.9,10.33,62.35,62.35,0,0,0,20.4,3.36q32.16,0,45.93-14.11t13.79-40.29V820.78h63v185.3ZM694.32,946.26c16.22,0,28.2-2.89,36.06-8.73s11.72-15.86,11.72-30.17a50.4,50.4,0,0,0-1.65-12.09A29.52,29.52,0,0,0,734,883.18a37.06,37.06,0,0,0-13.17-9.35c-5.63-2.53-13-3.77-22.06-3.77h-77v76.2ZM561.24,820.88H710.8q29.67,0,47.78,9.14t28.21,22q10.07,12.87,13.59,26.61c2.32,9.09,3.51,16.73,3.51,22.83q0,23.79-11.73,42.26t-34,25.57a140.07,140.07,0,0,1,16.07,8.16A35,35,0,0,1,786,989.34c3.15,5.12,5.58,11.83,7.23,20s2.48,18.91,2.48,32.13c0,10.33.11,18.91.21,25.78a92.65,92.65,0,0,0,1.45,16.48c.82,4.08,2.12,7.28,3.92,9.5a15.62,15.62,0,0,0,7.65,5v7.55H740.5a129,129,0,0,1-5-22.84q-1.62-12.46-1.65-34.71c0-9.77-.36-18.08-1-24.8s-2.64-12.29-5.79-16.69-8-7.54-14.41-9.5-15.5-3-27-3H621.84v111.48h-60.6V820.88Zm-93.5,93.25c-1.4-4.24-3.1-9.2-5.17-14.88a46,46,0,0,0-10.28-16.07,60.46,60.46,0,0,0-19.17-12.91c-7.95-3.57-18.28-5.38-30.89-5.38a77.09,77.09,0,0,0-23.92,4.19c-8.52,2.79-16.48,7.85-23.87,15.29S340.91,902,336.11,914.9s-7.24,29.5-7.24,49.6a161.67,161.67,0,0,0,4.14,36.73,95.87,95.87,0,0,0,13,31.15,66.73,66.73,0,0,0,22.68,21.44c9.2,5.27,20.41,8,33.58,8,17.31,0,31.62-4.54,42.83-13.69s18.8-22.42,22.68-39.88h61.78a151.36,151.36,0,0,1-14.83,42.67A115.64,115.64,0,0,1,488.35,1084a117.3,117.3,0,0,1-37.92,21.64q-21.85,7.75-49.44,7.75-29.69,0-54.4-9.5A115.26,115.26,0,0,1,304,1075.51c-11.93-12.55-21.28-28.2-28-46.8s-10.07-40.3-10.07-64.89c0-24.84,3.51-46.7,10.49-65.45s16.63-34.46,28.82-47A118.83,118.83,0,0,1,348.45,823a148.12,148.12,0,0,1,53.37-9.51q33.39,0,56.88,9.92t38.95,24.8a101.44,101.44,0,0,1,23.09,32.54c5.06,11.78,8.06,22.94,8.88,33.53H467.84Z" transform="translate(0)"/><path class="cls-2" d="M1709.23,820.21h55.43v55.43h-55.43ZM1601.52,958a49.81,49.81,0,0,0-2.58-9.87,23.72,23.72,0,0,0-5.74-8.73,27.88,27.88,0,0,0-10.9-6.2c-4.59-1.55-10.64-2.32-18-2.32-7.65,0-13.75.61-18.24,1.91s-7.91,2.89-10.28,4.85a13.1,13.1,0,0,0-4.55,6.41,25,25,0,0,0-1,7c0,5.43,3.26,9.56,9.71,12.4a126.62,126.62,0,0,0,24.34,7.34q14.64,3.09,31.87,6.4A134.2,134.2,0,0,1,1628,987.23a69.72,69.72,0,0,1,24.34,18.18c6.45,7.59,9.71,17.72,9.71,30.38,0,15-3.21,27.07-9.71,36.37a67.76,67.76,0,0,1-24,21.49,99.06,99.06,0,0,1-30.28,10.23,172.83,172.83,0,0,1-28.31,2.68,188.92,188.92,0,0,1-35.85-3.46,105.22,105.22,0,0,1-32.29-11.62,70.16,70.16,0,0,1-23.55-21.86q-9.3-13.71-9.72-34.25h57a27.32,27.32,0,0,0,9.92,21.7q9.92,8.52,36,8.52c7.13,0,13-.77,17.62-2.32a34.34,34.34,0,0,0,10.69-5.42,18.08,18.08,0,0,0,6.92-13.54c0-5.68-3.25-10-9.71-13s-14.51-5.47-24.17-7.54-20.15-4.18-31.47-6.4a140.61,140.61,0,0,1-31.46-9.87,68.07,68.07,0,0,1-24.12-18q-9.69-11.38-9.71-30.79a75.82,75.82,0,0,1,4-23.4,57.15,57.15,0,0,1,13.85-22.27q9.91-10.07,26.35-16.63t41-6.56a200.1,200.1,0,0,1,31.46,2.53,89.42,89.42,0,0,1,29.5,9.87A65.92,65.92,0,0,1,1644.81,923q9.3,13.34,10.9,35h-54.24Zm826,139.69q-9.93,28.66-17.05,45.66c-4.75,11.37-9.87,20.05-15.45,26.14a38.34,38.34,0,0,1-19.58,11.78c-7.54,1.81-17.35,2.74-29.49,2.74-3.67,0-7.81,0-12.3-.21s-8.73-.31-12.66-.56v-43.35a34.38,34.38,0,0,0,4.55.57c1.7.16,3.77.21,6.15.21a104.81,104.81,0,0,0,13.48-.78,20.83,20.83,0,0,0,10.28-4.08,27.15,27.15,0,0,0,7.54-9.5c2.12-4.14,3.83-9.66,5.17-16.64l-77.59-214.39h61.78L2397.5,1047h.78l43.13-151.73H2500Zm-306.45-97.9a103,103,0,0,0,2.17,20.15,68.35,68.35,0,0,0,7.33,20.14,47.86,47.86,0,0,0,13.85,15.66c5.78,4.23,13.17,6.4,22.16,6.4,8.73,0,16.17-1.7,22.37-5a45.48,45.48,0,0,0,15.24-13.17,55,55,0,0,0,8.73-18.75,87.4,87.4,0,0,0,2.79-22.27,133,133,0,0,0-2.17-24.18,65.56,65.56,0,0,0-7.54-21.07,43.1,43.1,0,0,0-14.47-15.09c-6.09-3.87-13.84-5.78-23.35-5.78q-13.09,0-22.16,5.21a41.32,41.32,0,0,0-14.67,14.11,61.9,61.9,0,0,0-7.91,20.3,113.13,113.13,0,0,0-2.37,23.4Zm147.69,101.41h-54.24v-25.93h-.77q-10.3,17.43-26.92,24.38a87.27,87.27,0,0,1-34,7q-23.4,0-40.19-9.3a80.27,80.27,0,0,1-27.54-24.74,110.85,110.85,0,0,1-15.86-35.39A165,165,0,0,1,2064,996q0-26.75,7.12-46.65t19.22-33.12a78.52,78.52,0,0,1,27.9-19.73,85.69,85.69,0,0,1,33.27-6.56,78.3,78.3,0,0,1,23.35,3.1,66,66,0,0,1,17.2,8,62.5,62.5,0,0,1,12.3,10.44,82.71,82.71,0,0,1,8.11,10.64h.77V823.36h55.43v277.88Zm-244.3,0h-53v-29h-.78a65.38,65.38,0,0,1-25.72,25.52q-16.2,8.91-38.44,8.88a90.56,90.56,0,0,1-28.72-4.44,59.34,59.34,0,0,1-22.78-13.74c-6.36-6.2-11.27-14.05-14.83-23.61s-5.32-20.92-5.32-34V895.27h55.43V1023c0,8,1,14.46,3.15,19.37a28.11,28.11,0,0,0,8.32,11.41,29.3,29.3,0,0,0,11.67,5.64,55.6,55.6,0,0,0,12.87,1.55,53.59,53.59,0,0,0,14.26-2.12,35.85,35.85,0,0,0,13.84-7.54,41.7,41.7,0,0,0,10.49-14.31c2.79-6,4.13-13.54,4.13-22.84V895.32h55.43v205.87ZM1764.72,895.32h34.45V934h-34.45v111.84a63.37,63.37,0,0,0,.41,7.75,7.79,7.79,0,0,0,2.58,5c1.45,1.29,3.77,2.27,6.92,2.89a70.8,70.8,0,0,0,13.07,1c1.86,0,3.67-.06,5.53-.21s3.83-.31,5.94-.57v41c-4.49.26-8.83.46-13.07.57s-8.57.2-13.07.2h-7.13c-11.88,0-21.49-1.08-28.93-3.3s-13.12-5.22-17.2-9.09a29.43,29.43,0,0,1-8.32-13.95,70.83,70.83,0,0,1-2.17-18.19V934h-28.51V895.27h84Z" transform="translate(0)"/></svg>