<svg id="Capa_1" data-name="Capa 1"  width="40"
  height="40"
  xmlns="http://www.w3.org/2000/svg"
  viewBox="0 0 599.42 800"><defs><style>.cls-1{fill:#00ffe7;}</style></defs><path class="cls-1" d="M352.51,799.49c-74.88-5.4-148.9-24.25-194.29-49.48-25.85-14.38-45.55-32-53.28-47.78l-4.6-9.37V105.25L104,97.86c16.26-33,68.16-62.78,140.61-80.64,24.6-6.07,60.1-12.1,89.07-15.15,29.57-3.11,108-2.64,137.47.84,78.42,9.21,145.14,29.83,186.26,57.57,15.86,10.7,32.13,27.81,37.64,39.59l4.73,10.1-.4,292.92L699,696l-3.79,7.71c-2.09,4.23-8.39,12.58-14,18.53C647,758.49,573.62,785.31,477.42,796.73c-19.61,2.33-104.79,4.21-124.91,2.76Zm138-251.75C490.22,547,479,537,465.64,525.57s-24.94-21.33-25.64-22,1.77-3,5.5-5.17,10.87-8.27,15.88-13.52c14.63-15.34,21.54-34.3,21.54-59.13q0-36.66-22.37-59.22c-15-15.17-32.29-21.69-57.42-21.69-38.75,0-68.5,22.6-78,59.26-3.27,12.6-3.25,38.08,0,49.26,8.56,29.15,31.89,50.33,60.92,55.3,9.82,1.69,11.15,2.41,17.85,9.74,4,4.35,12.15,13,18.15,19.3L433,549.1h29c16,0,28.78-.61,28.49-1.36ZM391,466.5c-7-3.65-9.63-6.47-13.61-14.57-3.08-6.25-3.6-9.81-3.64-24.59,0-15,.45-18.27,3.66-24.79,5.25-10.68,12.5-15.73,23.7-16.54,15.59-1.13,24.6,6.52,29.31,24.92,5.79,22.55-.57,46.52-14.45,54.48-7.28,4.17-18.14,4.65-25,1.09ZM262.4,508.36c30.42-5.77,47.69-23.46,47.69-48.86,0-22.53-11.15-35.66-42-49.41-17.64-7.88-24-12.82-24-18.6,0-4.78,6.06-10,13.12-11.34,6.89-1.29,25.17,1.88,36,6.24l9,3.66V350l-9.82-2.18c-6.06-1.34-18.82-2.15-33.38-2.11-20.63,0-24.67.5-32.44,3.59-22.68,9-33.44,24.34-33.27,47.41.16,21.6,11.56,35.07,39.91,47.19,16.73,7.15,23.44,12.6,23.44,19,0,13.67-22.78,15.36-46.91,3.46l-13.19-6.51c-.64-.32-1.17,9-1.17,20.79,0,21.29,0,21.39,3.87,22.86C213.78,509,245.86,511.49,262.4,508.36Zm347.78-19.75V470.54h-55V346.42h-48.7V506.68H610.18V488.61ZM440.5,172c48.39-3.35,84.67-9.69,116.59-20.36s50.59-23.5,54.79-37.53c1.62-5.4,1.5-7.45-.76-13.38C601,74.14,544.3,53.73,457.69,45.46,420.64,41.92,353.27,43.07,318,47.84c-53.9,7.28-97.64,20.81-117.09,36.21-39.34,31.15,2.26,65.42,99,81.54,41.95,7,96.3,9.47,140.61,6.39Z" transform="translate(-100.34 0)"/></svg>
