<?xml version="1.0" encoding="utf-8"?>
<!-- Generator: Adobe Illustrator 25.2.1, SVG Export Plug-In . SVG Version: 6.00 Build 0)  -->
<svg version="1.1" id="Capa_1" xmlns="http://www.w3.org/2000/svg" xmlns:xlink="http://www.w3.org/1999/xlink" x="0px" y="0px"
	 viewBox="0 0 665.5 641" style="enable-background:new 0 0 665.5 641;" xml:space="preserve">
<style type="text/css">
	.st0{fill:#00FFE7;}
	.st1{fill:#0A0A0F;}
</style>
<polygon class="st0" points="0,320.5 0,641 332.8,641 665.5,641 665.5,320.5 665.5,0 332.8,0 0,0 "/>
<path class="st1" d="M147.2,322.6l-0.2,26.2h86.6v237.1h61.3V348.9h86.6v-25.8c0-14.2-0.3-26.1-0.7-26.5s-53-0.6-116.9-0.5
	l-116.4,0.3L147.2,322.6z"/>
<path class="st1" d="M537,295.7c16.9,4.1,29.8,11.3,41.6,23.1c6.1,6.3,15.2,17.8,16,20.5c0.2,0.8-28.7,19.5-46.3,30
	c-0.6,0.4-3.2-2.2-6-6.3c-8.5-12-17.5-17.2-31.3-18.1c-20.2-1.3-33.2,8.9-33.1,25.8c-0.2,4.2,0.8,8.3,2.8,12
	c4.4,8.9,12.7,14.1,38.6,24.9c47.6,19.8,68,32.8,80.7,51.3c14.2,20.7,17.3,53.6,7.7,78.2c-10.6,26.7-36.8,44.8-73.6,50.8
	c-11.4,1.9-38.5,1.6-50.7-0.5c-26.7-4.6-52.1-17.3-67.7-34c-6.1-6.5-18.1-23.5-17.3-24.7c1.9-1.4,4-2.7,6.1-3.8
	c3-1.6,14.1-7.8,24.7-13.7l19.1-10.7l4,5.7c5.6,8.2,17.8,19.5,25.2,23.3c21.2,10.8,50.4,9.3,64.8-3.2c6.1-5.4,8.7-11,8.7-19.2
	c0-7.4-1-10.7-5-16.3c-5.2-7.1-15.7-13.1-45.7-25.6c-34.3-14.2-49.1-23.1-62.6-37.1c-7.8-8.1-15.2-21.2-18.3-32
	c-2.5-9-3.2-31.7-1.2-40.9c7.1-32,32.1-54.2,68.2-60.8C498.2,292.2,525.5,293,537,295.7z"/>
</svg>
