<svg id="Capa_1" data-name="Capa 1" xmlns="http://www.w3.org/2000/svg" viewBox="0 0 665.5 641"><defs><style>.cls-1{fill:#00ffe7;}.cls-2{fill:#0a0a0f;}</style></defs><polygon class="cls-1" points="0 320.5 0 641 332.75 641 665.5 641 665.5 320.5 665.5 0 332.75 0 0 0 0 320.5"/><path class="cls-2" d="M147.17,322.63,147,348.88h86.62V585.94h61.26V348.88h86.63V323.13c0-14.24-.32-26.14-.74-26.45s-53-.61-116.94-.51l-116.35.33Z"/><path class="cls-2" d="M537,295.73c16.9,4.07,29.79,11.3,41.62,23.1,6.13,6.31,15.21,17.8,16,20.55.21.82-28.73,19.54-46.26,30-.64.4-3.17-2.24-6-6.31-8.55-12-17.53-17.2-31.26-18.11-20.18-1.33-33.17,8.85-33.07,25.84a22.83,22.83,0,0,0,2.85,12c4.44,8.85,12.68,14.14,38.56,24.92,47.61,19.78,68,32.78,80.67,51.31,14.15,20.66,17.32,53.62,7.71,78.15C597.2,563.83,571,581.94,534.14,588c-11.41,1.93-38.45,1.62-50.7-.51-26.73-4.58-52.08-17.3-67.72-34-6.12-6.51-18.06-23.5-17.32-24.72a49.34,49.34,0,0,1,6.13-3.76c3-1.63,14.15-7.84,24.71-13.74l19.12-10.68,4,5.69c5.6,8.25,17.85,19.54,25.25,23.3,21.23,10.79,50.38,9.26,64.75-3.15,6.13-5.39,8.66-11,8.66-19.23,0-7.43-.95-10.68-5-16.28-5.18-7.12-15.74-13.12-45.74-25.64C466,451,451.22,442.14,437.7,428.1c-7.82-8.14-15.22-21.16-18.28-32.05-2.53-9.05-3.17-31.74-1.16-40.9,7.08-31.95,32.11-54.23,68.24-60.84C498.22,292.17,525.48,293,537,295.73Z"/></svg>