<?xml version="1.0" encoding="utf-8"?>
<!-- Generator: Adobe Illustrator 25.2.1, SVG Export Plug-In . SVG Version: 6.00 Build 0)  -->
<svg version="1.1" id="Capa_1" xmlns="http://www.w3.org/2000/svg" xmlns:xlink="http://www.w3.org/1999/xlink" x="0px" y="0px"
	 viewBox="0 0 749.8 749.8" style="enable-background:new 0 0 749.8 749.8;" xml:space="preserve">
<style type="text/css">
	.st0{fill:#00FFE7;}
</style>
<path class="st0" d="M623.4,601.4L488.9,374.9l134.5-226.6l65,226.6L623.4,601.4L623.4,601.4z M323.5,579.7L154.3,411.8h269
	l134.5,226.5L323.5,579.7L323.5,579.7z M323.5,170.1l234.3-58.5L423.3,338.1h-269L323.5,170.1z M749.8,297.8L667.8,0L361.4,79.8
	l-45.3,77.8l-92-0.7L0,374.9l224.2,218l91.9-0.7l45.4,77.8l306.1,79.8l82.1-297.7l-46.6-77.2L749.8,297.8z"/>
</svg>
